{"accessors" : [{"bufferView" : 0, "byteOffset" : 0, "componentType" : 5123, "count" : 792, "type" : "SCALAR", "max" : [791], "min" : [0]}, {"bufferView" : 1, "byteOffset" : 0, "componentType" : 5126, "count" : 792, "type" : "VEC3", "max" : [6.523999214172363, 0.9621008038520813, 1.1071265935897827], "min" : [-4.552064895629883, -0.9621008038520813, -1.32901930809021], "name" : "POSITION"}, {"bufferView" : 1, "byteOffset" : 12, "componentType" : 5126, "count" : 792, "type" : "VEC3", "max" : [0.9890766143798828, 1.0000044107437134, 0.9999934434890747], "min" : [-1.0000044107437134, -1.0000044107437134, -1.0000044107437134], "name" : "NORMAL"}, {"bufferView" : 1, "byteOffset" : 24, "componentType" : 5126, "count" : 792, "type" : "VEC2", "max" : [0.875, 1], "min" : [0.125, 0], "name" : "TEXCOORD_0"}, {"bufferView" : 0, "byteOffset" : 1584, "componentType" : 5123, "count" : 36, "type" : "SCALAR", "max" : [35], "min" : [0]}, {"bufferView" : 2, "byteOffset" : 0, "componentType" : 5126, "count" : 36, "type" : "VEC3", "max" : [10.69654369354248, 1, -0.36848172545433044], "min" : [-87.22911834716797, -1, -2.3684818744659424], "name" : "POSITION"}, {"bufferView" : 2, "byteOffset" : 12, "componentType" : 5126, "count" : 36, "type" : "VEC3", "max" : [1.0000044107437134, 1.0000044107437134, 1.0000044107437134], "min" : [-1.0000044107437134, -1.0000044107437134, -1.0000044107437134], "name" : "NORMAL"}, {"bufferView" : 2, "byteOffset" : 24, "componentType" : 5126, "count" : 36, "type" : "VEC2", "max" : [0.16013650596141815, 0.9820210933685303], "min" : [0.029697731137275696, 0.8109477162361145], "name" : "TEXCOORD_0"}, {"bufferView" : 0, "byteOffset" : 1656, "componentType" : 5123, "count" : 4980, "type" : "SCALAR", "max" : [4979], "min" : [0]}, {"bufferView" : 3, "byteOffset" : 0, "componentType" : 5126, "count" : 4980, "type" : "VEC3", "max" : [0.9933856129646301, 0.9933856129646301, 1.0000003576278687], "min" : [-0.9933856129646301, -0.9933856129646301, -1], "name" : "POSITION"}, {"bufferView" : 3, "byteOffset" : 12, "componentType" : 5126, "count" : 4980, "type" : "VEC3", "max" : [1.0000044107437134, 1.0000044107437134, 1.0000044107437134], "min" : [-1.0000044107437134, -1.0000044107437134, -0.9869495630264282], "name" : "NORMAL"}, {"bufferView" : 3, "byteOffset" : 24, "componentType" : 5126, "count" : 4980, "type" : "VEC2", "max" : [0.9638620615005493, 0.9822770357131958], "min" : [0.3894105851650238, 0.5799015164375305], "name" : "TEXCOORD_0"}, {"bufferView" : 0, "byteOffset" : 11616, "componentType" : 5123, "count" : 2340, "type" : "SCALAR", "max" : [2339], "min" : [0]}, {"bufferView" : 4, "byteOffset" : 0, "componentType" : 5126, "count" : 2340, "type" : "VEC3", "max" : [1, 1, 3.1596927642822266], "min" : [-3.3761520385742188, -1, -1], "name" : "POSITION"}, {"bufferView" : 4, "byteOffset" : 12, "componentType" : 5126, "count" : 2340, "type" : "VEC3", "max" : [1.0000044107437134, 1.0000044107437134, 1.0000044107437134], "min" : [-1.0000044107437134, -1.0000044107437134, -1.0000044107437134], "name" : "NORMAL"}, {"bufferView" : 4, "byteOffset" : 24, "componentType" : 5126, "count" : 2340, "type" : "VEC2", "max" : [0.19662009179592133, 0.9820210933685303], "min" : [0.1211961954832077, 0.9559552669525146], "name" : "TEXCOORD_0"}, {"bufferView" : 0, "byteOffset" : 16296, "componentType" : 5123, "count" : 2340, "type" : "SCALAR", "max" : [2339], "min" : [0]}, {"bufferView" : 5, "byteOffset" : 0, "componentType" : 5126, "count" : 2340, "type" : "VEC3", "max" : [1, 1, 3.1596927642822266], "min" : [-3.3761520385742188, -1, -1], "name" : "POSITION"}, {"bufferView" : 5, "byteOffset" : 12, "componentType" : 5126, "count" : 2340, "type" : "VEC3", "max" : [1.0000044107437134, 1.0000044107437134, 1.0000044107437134], "min" : [-1.0000044107437134, -1.0000044107437134, -1.0000044107437134], "name" : "NORMAL"}, {"bufferView" : 5, "byteOffset" : 24, "componentType" : 5126, "count" : 2340, "type" : "VEC2", "max" : [0.20077107846736908, 0.9820210933685303], "min" : [0.12119613587856293, 0.9559298157691956], "name" : "TEXCOORD_0"}, {"bufferView" : 0, "byteOffset" : 20976, "componentType" : 5123, "count" : 840, "type" : "SCALAR", "max" : [839], "min" : [0]}, {"bufferView" : 6, "byteOffset" : 0, "componentType" : 5126, "count" : 840, "type" : "VEC3", "max" : [241.23251342773438, 1, 10.298103332519531], "min" : [-1, -1.000000238418579, -56.0215950012207], "name" : "POSITION"}, {"bufferView" : 6, "byteOffset" : 12, "componentType" : 5126, "count" : 840, "type" : "VEC3", "max" : [1.0000041723251343, 1.0000044107437134, 1.0000033378601074], "min" : [-1.0000019073486328, -1.0000044107437134, -1.0000044107437134], "name" : "NORMAL"}, {"bufferView" : 6, "byteOffset" : 24, "componentType" : 5126, "count" : 840, "type" : "VEC2", "max" : [0.2637993395328522, 0.7052055597305298], "min" : [0.04870074987411499, 0.4901069402694702], "name" : "TEXCOORD_0"}, {"bufferView" : 0, "byteOffset" : 22656, "componentType" : 5123, "count" : 840, "type" : "SCALAR", "max" : [839], "min" : [0]}, {"bufferView" : 7, "byteOffset" : 0, "componentType" : 5126, "count" : 840, "type" : "VEC3", "max" : [241.23251342773438, 1, 10.298103332519531], "min" : [-1, -1.000000238418579, -56.0215950012207], "name" : "POSITION"}, {"bufferView" : 7, "byteOffset" : 12, "componentType" : 5126, "count" : 840, "type" : "VEC3", "max" : [1.0000041723251343, 1.0000044107437134, 1.0000033378601074], "min" : [-1.0000019073486328, -1.0000044107437134, -1.0000044107437134], "name" : "NORMAL"}, {"bufferView" : 7, "byteOffset" : 24, "componentType" : 5126, "count" : 840, "type" : "VEC2", "max" : [0.2637993395328522, 0.7052055597305298], "min" : [0.04870074987411499, 0.4901069402694702], "name" : "TEXCOORD_0"}, {"bufferView" : 0, "byteOffset" : 24336, "componentType" : 5123, "count" : 792, "type" : "SCALAR", "max" : [791], "min" : [0]}, {"bufferView" : 8, "byteOffset" : 0, "componentType" : 5126, "count" : 792, "type" : "VEC3", "max" : [5.326610088348389, 0.9999999403953552, 1.0269711017608643], "min" : [-6.137670516967773, -1, -1.409946322441101], "name" : "POSITION"}, {"bufferView" : 8, "byteOffset" : 12, "componentType" : 5126, "count" : 792, "type" : "VEC3", "max" : [1.0000044107437134, 1.0000044107437134, 1.0000044107437134], "min" : [-1.0000044107437134, -1.0000044107437134, -1.0000044107437134], "name" : "NORMAL"}, {"bufferView" : 8, "byteOffset" : 24, "componentType" : 5126, "count" : 792, "type" : "VEC2", "max" : [0.9559655785560608, 0.6715567708015442], "min" : [0.05363859981298447, 0.023073196411132812], "name" : "TEXCOORD_0"}, {"bufferView" : 0, "byteOffset" : 25920, "componentType" : 5123, "count" : 4980, "type" : "SCALAR", "max" : [4979], "min" : [0]}, {"bufferView" : 9, "byteOffset" : 0, "componentType" : 5126, "count" : 4980, "type" : "VEC3", "max" : [0.9933856129646301, 0.9933856129646301, 1.0000003576278687], "min" : [-0.9933856129646301, -0.9933856129646301, -1], "name" : "POSITION"}, {"bufferView" : 9, "byteOffset" : 12, "componentType" : 5126, "count" : 4980, "type" : "VEC3", "max" : [1.0000044107437134, 1.0000044107437134, 1.0000044107437134], "min" : [-1.0000044107437134, -1.0000044107437134, -0.9869495630264282], "name" : "NORMAL"}, {"bufferView" : 9, "byteOffset" : 24, "componentType" : 5126, "count" : 4980, "type" : "VEC2", "max" : [0.9638620615005493, 0.9822770357131958], "min" : [0.3894105851650238, 0.5799015164375305], "name" : "TEXCOORD_0"}, {"bufferView" : 0, "byteOffset" : 35880, "componentType" : 5123, "count" : 4980, "type" : "SCALAR", "max" : [4979], "min" : [0]}, {"bufferView" : 10, "byteOffset" : 0, "componentType" : 5126, "count" : 4980, "type" : "VEC3", "max" : [0.9933856129646301, 0.9933856129646301, 1.0000003576278687], "min" : [-0.9933856129646301, -0.9933856129646301, -1], "name" : "POSITION"}, {"bufferView" : 10, "byteOffset" : 12, "componentType" : 5126, "count" : 4980, "type" : "VEC3", "max" : [1.0000044107437134, 1.0000044107437134, 1.0000044107437134], "min" : [-1.0000044107437134, -1.0000044107437134, -0.9869495630264282], "name" : "NORMAL"}, {"bufferView" : 10, "byteOffset" : 24, "componentType" : 5126, "count" : 4980, "type" : "VEC2", "max" : [0.9638620615005493, 0.9822770357131958], "min" : [0.3894105851650238, 0.5799015164375305], "name" : "TEXCOORD_0"}, {"bufferView" : 0, "byteOffset" : 45840, "componentType" : 5123, "count" : 4980, "type" : "SCALAR", "max" : [4979], "min" : [0]}, {"bufferView" : 11, "byteOffset" : 0, "componentType" : 5126, "count" : 4980, "type" : "VEC3", "max" : [0.9933856129646301, 0.9933856129646301, 1.0000003576278687], "min" : [-0.9933856129646301, -0.9933856129646301, -1], "name" : "POSITION"}, {"bufferView" : 11, "byteOffset" : 12, "componentType" : 5126, "count" : 4980, "type" : "VEC3", "max" : [1.0000044107437134, 1.0000044107437134, 1.0000044107437134], "min" : [-1.0000044107437134, -1.0000044107437134, -0.9869495630264282], "name" : "NORMAL"}, {"bufferView" : 11, "byteOffset" : 24, "componentType" : 5126, "count" : 4980, "type" : "VEC2", "max" : [0.9638620615005493, 0.9822770357131958], "min" : [0.3894105851650238, 0.5799015164375305], "name" : "TEXCOORD_0"}, {"bufferView" : 0, "byteOffset" : 55800, "componentType" : 5123, "count" : 4980, "type" : "SCALAR", "max" : [4979], "min" : [0]}, {"bufferView" : 12, "byteOffset" : 0, "componentType" : 5126, "count" : 4980, "type" : "VEC3", "max" : [0.9933856129646301, 0.9933856129646301, 1.0000003576278687], "min" : [-0.9933856129646301, -0.9933856129646301, -1], "name" : "POSITION"}, {"bufferView" : 12, "byteOffset" : 12, "componentType" : 5126, "count" : 4980, "type" : "VEC3", "max" : [1.0000044107437134, 1.0000044107437134, 1.0000044107437134], "min" : [-1.0000044107437134, -1.0000044107437134, -0.9869495630264282], "name" : "NORMAL"}, {"bufferView" : 12, "byteOffset" : 24, "componentType" : 5126, "count" : 4980, "type" : "VEC2", "max" : [0.9638620615005493, 0.9822770357131958], "min" : [0.3894105851650238, 0.5799015164375305], "name" : "TEXCOORD_0"}, {"bufferView" : 0, "byteOffset" : 65760, "componentType" : 5123, "count" : 4980, "type" : "SCALAR", "max" : [4979], "min" : [0]}, {"bufferView" : 13, "byteOffset" : 0, "componentType" : 5126, "count" : 4980, "type" : "VEC3", "max" : [0.9933856129646301, 0.9933856129646301, 1.0000003576278687], "min" : [-0.9933856129646301, -0.9933856129646301, -1], "name" : "POSITION"}, {"bufferView" : 13, "byteOffset" : 12, "componentType" : 5126, "count" : 4980, "type" : "VEC3", "max" : [1.0000044107437134, 1.0000044107437134, 1.0000044107437134], "min" : [-1.0000044107437134, -1.0000044107437134, -0.9869495630264282], "name" : "NORMAL"}, {"bufferView" : 13, "byteOffset" : 24, "componentType" : 5126, "count" : 4980, "type" : "VEC2", "max" : [0.9638620615005493, 0.9822770357131958], "min" : [0.3894105851650238, 0.5799015164375305], "name" : "TEXCOORD_0"}, {"bufferView" : 0, "byteOffset" : 75720, "componentType" : 5123, "count" : 84, "type" : "SCALAR", "max" : [83], "min" : [0]}, {"bufferView" : 14, "byteOffset" : 0, "componentType" : 5126, "count" : 84, "type" : "VEC3", "max" : [1.7859673500061035, 1.785969614982605, 1.5147372484207153], "min" : [-1.7859704494476318, -1.7859681844711304, -4.029288291931152], "name" : "POSITION"}, {"bufferView" : 14, "byteOffset" : 12, "componentType" : 5126, "count" : 84, "type" : "VEC3", "max" : [1.0000042915344238, 1.0000042915344238, 1.0000044107437134], "min" : [-1.0000042915344238, -1.0000042915344238, -1.0000044107437134], "name" : "NORMAL"}, {"bufferView" : 14, "byteOffset" : 24, "componentType" : 5126, "count" : 84, "type" : "VEC2", "max" : [0.4053574204444885, 0.9665282964706421], "min" : [0.1977924108505249, 0.7589634656906128], "name" : "TEXCOORD_0"}, {"bufferView" : 0, "byteOffset" : 75888, "componentType" : 5123, "count" : 84, "type" : "SCALAR", "max" : [83], "min" : [0]}, {"bufferView" : 15, "byteOffset" : 0, "componentType" : 5126, "count" : 84, "type" : "VEC3", "max" : [1.7859673500061035, 1.785969614982605, 1.5147372484207153], "min" : [-1.7859704494476318, -1.7859681844711304, -4.029288291931152], "name" : "POSITION"}, {"bufferView" : 15, "byteOffset" : 12, "componentType" : 5126, "count" : 84, "type" : "VEC3", "max" : [1.0000042915344238, 1.0000042915344238, 1.0000044107437134], "min" : [-1.0000042915344238, -1.0000042915344238, -1.0000044107437134], "name" : "NORMAL"}, {"bufferView" : 15, "byteOffset" : 24, "componentType" : 5126, "count" : 84, "type" : "VEC2", "max" : [0.4053574204444885, 0.9665282964706421], "min" : [0.1977924108505249, 0.7589634656906128], "name" : "TEXCOORD_0"}, {"bufferView" : 0, "byteOffset" : 76056, "componentType" : 5123, "count" : 84, "type" : "SCALAR", "max" : [83], "min" : [0]}, {"bufferView" : 16, "byteOffset" : 0, "componentType" : 5126, "count" : 84, "type" : "VEC3", "max" : [1.7859673500061035, 1.785969614982605, 1.5147372484207153], "min" : [-1.7859704494476318, -1.7859681844711304, -4.029288291931152], "name" : "POSITION"}, {"bufferView" : 16, "byteOffset" : 12, "componentType" : 5126, "count" : 84, "type" : "VEC3", "max" : [1.0000042915344238, 1.0000042915344238, 1.0000044107437134], "min" : [-1.0000042915344238, -1.0000042915344238, -1.0000044107437134], "name" : "NORMAL"}, {"bufferView" : 16, "byteOffset" : 24, "componentType" : 5126, "count" : 84, "type" : "VEC2", "max" : [0.4053574204444885, 0.9665282964706421], "min" : [0.1977924108505249, 0.7589634656906128], "name" : "TEXCOORD_0"}, {"bufferView" : 0, "byteOffset" : 76224, "componentType" : 5123, "count" : 84, "type" : "SCALAR", "max" : [83], "min" : [0]}, {"bufferView" : 17, "byteOffset" : 0, "componentType" : 5126, "count" : 84, "type" : "VEC3", "max" : [1.7859673500061035, 1.785969614982605, 1.5147372484207153], "min" : [-1.7859704494476318, -1.7859681844711304, -4.029288291931152], "name" : "POSITION"}, {"bufferView" : 17, "byteOffset" : 12, "componentType" : 5126, "count" : 84, "type" : "VEC3", "max" : [1.0000042915344238, 1.0000042915344238, 1.0000044107437134], "min" : [-1.0000042915344238, -1.0000042915344238, -1.0000044107437134], "name" : "NORMAL"}, {"bufferView" : 17, "byteOffset" : 24, "componentType" : 5126, "count" : 84, "type" : "VEC2", "max" : [0.4053574204444885, 0.9665282964706421], "min" : [0.1977924108505249, 0.7589634656906128], "name" : "TEXCOORD_0"}], "asset" : {"generator" : "Aspose.3D 24.9.1", "version" : "2.0"}, "buffers" : [{"uri" : "data:application/octet-stream;base64,", "byteLength" : 1298736}], "bufferViews" : [{"buffer" : 0, "byteOffset" : 0, "byteLength" : 76392, "target" : 34963}, {"buffer" : 0, "byteOffset" : 76396, "byteLength" : 25344, "byteStride" : 32, "target" : 34962}, {"buffer" : 0, "byteOffset" : 101744, "byteLength" : 1152, "byteStride" : 32, "target" : 34962}, {"buffer" : 0, "byteOffset" : 102900, "byteLength" : 159360, "byteStride" : 32, "target" : 34962}, {"buffer" : 0, "byteOffset" : 262264, "byteLength" : 74880, "byteStride" : 32, "target" : 34962}, {"buffer" : 0, "byteOffset" : 337148, "byteLength" : 74880, "byteStride" : 32, "target" : 34962}, {"buffer" : 0, "byteOffset" : 412032, "byteLength" : 26880, "byteStride" : 32, "target" : 34962}, {"buffer" : 0, "byteOffset" : 438916, "byteLength" : 26880, "byteStride" : 32, "target" : 34962}, {"buffer" : 0, "byteOffset" : 465800, "byteLength" : 25344, "byteStride" : 32, "target" : 34962}, {"buffer" : 0, "byteOffset" : 491148, "byteLength" : 159360, "byteStride" : 32, "target" : 34962}, {"buffer" : 0, "byteOffset" : 650512, "byteLength" : 159360, "byteStride" : 32, "target" : 34962}, {"buffer" : 0, "byteOffset" : 809876, "byteLength" : 159360, "byteStride" : 32, "target" : 34962}, {"buffer" : 0, "byteOffset" : 969240, "byteLength" : 159360, "byteStride" : 32, "target" : 34962}, {"buffer" : 0, "byteOffset" : 1128604, "byteLength" : 159360, "byteStride" : 32, "target" : 34962}, {"buffer" : 0, "byteOffset" : 1287968, "byteLength" : 2688, "byteStride" : 32, "target" : 34962}, {"buffer" : 0, "byteOffset" : 1290660, "byteLength" : 2688, "byteStride" : 32, "target" : 34962}, {"buffer" : 0, "byteOffset" : 1293352, "byteLength" : 2688, "byteStride" : 32, "target" : 34962}, {"buffer" : 0, "byteOffset" : 1296044, "byteLength" : 2688, "byteStride" : 32, "target" : 34962}], "images" : [{"uri" : "https://raw.githubusercontent.com/Vansh-Vviation/Geofs-GSE/refs/heads/main/Untitled387_20250114174817.png"}], "materials" : [{"name" : "Material", "pbrMetallicRoughness" : {"baseColorFactor" : [0.800000011920929, 0.800000011920929, 0.800000011920929, 1], "metallicFactor" : 1, "roughnessFactor" : 1}, "emissiveFactor" : [0, 0, 0], "alphaMode" : "OPAQUE", "doubleSided" : false}, {"name" : "Material.002", "pbrMetallicRoughness" : {"baseColorFactor" : [1, 1, 1, 1], "baseColorTexture" : {"index" : 0, "texCoord" : 0}, "metallicFactor" : 1, "roughnessFactor" : 1}, "emissiveFactor" : [0, 0, 0], "alphaMode" : "OPAQUE", "doubleSided" : false}], "meshes" : [{"primitives" : [{"attributes" : {"POSITION" : 1, "NORMAL" : 2, "TEXCOORD_0" : 3}, "indices" : 0, "material" : 0, "mode" : 4}], "name" : "Cube.004"}, {"primitives" : [{"attributes" : {"POSITION" : 5, "NORMAL" : 6, "TEXCOORD_0" : 7}, "indices" : 4, "material" : 1, "mode" : 4}], "name" : "Cube.002"}, {"primitives" : [{"attributes" : {"POSITION" : 9, "NORMAL" : 10, "TEXCOORD_0" : 11}, "indices" : 8, "material" : 1, "mode" : 4}], "name" : "Cylinder"}, {"primitives" : [{"attributes" : {"POSITION" : 13, "NORMAL" : 14, "TEXCOORD_0" : 15}, "indices" : 12, "material" : 1, "mode" : 4}], "name" : "Cylinder.001"}, {"primitives" : [{"attributes" : {"POSITION" : 17, "NORMAL" : 18, "TEXCOORD_0" : 19}, "indices" : 16, "material" : 1, "mode" : 4}], "name" : "Cylinder.002"}, {"primitives" : [{"attributes" : {"POSITION" : 21, "NORMAL" : 22, "TEXCOORD_0" : 23}, "indices" : 20, "material" : 1, "mode" : 4}], "name" : "Cube.003"}, {"primitives" : [{"attributes" : {"POSITION" : 25, "NORMAL" : 26, "TEXCOORD_0" : 27}, "indices" : 24, "material" : 1, "mode" : 4}], "name" : "Cube.005"}, {"primitives" : [{"attributes" : {"POSITION" : 29, "NORMAL" : 30, "TEXCOORD_0" : 31}, "indices" : 28, "material" : 1, "mode" : 4}], "name" : "Cube.006"}, {"primitives" : [{"attributes" : {"POSITION" : 33, "NORMAL" : 34, "TEXCOORD_0" : 35}, "indices" : 32, "material" : 1, "mode" : 4}], "name" : "Cylinder.003"}, {"primitives" : [{"attributes" : {"POSITION" : 37, "NORMAL" : 38, "TEXCOORD_0" : 39}, "indices" : 36, "material" : 1, "mode" : 4}], "name" : "Cylinder.004"}, {"primitives" : [{"attributes" : {"POSITION" : 41, "NORMAL" : 42, "TEXCOORD_0" : 43}, "indices" : 40, "material" : 1, "mode" : 4}], "name" : "Cylinder.005"}, {"primitives" : [{"attributes" : {"POSITION" : 45, "NORMAL" : 46, "TEXCOORD_0" : 47}, "indices" : 44, "material" : 1, "mode" : 4}], "name" : "Cylinder.006"}, {"primitives" : [{"attributes" : {"POSITION" : 49, "NORMAL" : 50, "TEXCOORD_0" : 51}, "indices" : 48, "material" : 1, "mode" : 4}], "name" : "Cylinder.007"}, {"primitives" : [{"attributes" : {"POSITION" : 53, "NORMAL" : 54, "TEXCOORD_0" : 55}, "indices" : 52, "material" : 1, "mode" : 4}], "name" : "Cube.001"}, {"primitives" : [{"attributes" : {"POSITION" : 57, "NORMAL" : 58, "TEXCOORD_0" : 59}, "indices" : 56, "material" : 1, "mode" : 4}], "name" : "Cube.007"}, {"primitives" : [{"attributes" : {"POSITION" : 61, "NORMAL" : 62, "TEXCOORD_0" : 63}, "indices" : 60, "material" : 1, "mode" : 4}], "name" : "Cube.008"}, {"primitives" : [{"attributes" : {"POSITION" : 65, "NORMAL" : 66, "TEXCOORD_0" : 67}, "indices" : 64, "material" : 1, "mode" : 4}], "name" : "Cube.009"}], "nodes" : [{"matrix" : [100, 0, 0, 0, 0, -6.558472669996081E-06, -150.04035949707017, 0, 0, 99.9999999999999, -4.371139000186241E-06, 0, -159.85841369628906, 114.75875091552734, 1.1133688531117514E-05, 1], "mesh" : 0, "name" : "Cube"}, {"matrix" : [7.258028030395508, 0, 0, 0, 0, -3.172584938810673E-07, -7.258028030395501, 0, 0, 7.258028030395501, -3.172584938810673E-07, 0, 164.866455078125, 239.7000732421875, 3.2205825846176594E-05, 1], "mesh" : 1, "name" : "Cube.002"}, {"matrix" : [69.67431640625, 0, 0, 0, 0, 69.67431640624993, 3.0455610980466273E-06, 0, 0, -1.3483162599499918E-06, 30.84588050842282, 0, 113.13296508789062, -12.740198135375977, 120.39488220214844, 1], "mesh" : 2, "name" : "Cylinder"}, {"matrix" : [14.288859367370605, 0, 0, 0, 0, -6.245859044889015E-07, -14.288859367370591, 0, 0, 14.288859367370591, -6.245859044889015E-07, 0, -477.852783203125, 235.00942993164062, 3.188611663063057E-05, 1], "mesh" : 3, "name" : "Cylinder.001"}, {"matrix" : [8.45523738861084, 0, 0, 0, 0, -3.695901790518971E-07, -8.455237388610831, 0, 0, 8.455237388610831, -3.695901790518971E-07, 0, -637.5478515625, 100.3524398803711, 1.3793758625979535E-05, 1], "mesh" : 4, "name" : "Cylinder.002"}, {"matrix" : [3.620635747909546, 0, 0, 0, 0, -1.5826302123155897E-07, -3.6206357479095423, 0, 0, 3.6206357479095423, -1.5826302123155897E-07, 0, -363.47161865234375, 227.35655212402344, 100.82872009277344, 1], "mesh" : 5, "name" : "Cube.003"}, {"matrix" : [3.620635747909546, 0, 0, 0, 0, -1.5826302123155897E-07, -3.6206357479095423, 0, 0, 3.6206357479095423, -1.5826302123155897E-07, 0, -363.47161865234375, 227.35655212402344, -100.47745513916016, 1], "mesh" : 6, "name" : "Cube.004"}, {"matrix" : [99.99999999999962, 8.742278000372475E-06, 0, 0, 5.362529736447092E-13, -6.134018772016395E-06, 140.32998657226548, 0, -8.742278000372465E-06, 99.99999999999952, 4.371139000186241E-06, 0, -40.84746551513672, 122.78478240966797, 0, 1], "mesh" : 7, "name" : "Cube.005"}, {"matrix" : [69.67431640625, 0, 0, 0, 0, 69.67431640624993, 3.0455610980466273E-06, 0, 0, -1.3483162599499918E-06, 30.84588050842282, 0, 267.23876953125, -12.740198135375977, 120.39488220214844, 1], "mesh" : 8, "name" : "Cylinder.003"}, {"matrix" : [-69.67431640624973, 0, 6.091122435093503E-06, 0, -2.662514178624327E-13, 69.67431640624993, -3.045561098046616E-06, 0, -2.6966326257090295E-06, -1.3483162599499918E-06, -30.845880508422706, 0, 267.23876953125, -12.740198135375977, -119.0648193359375, 1], "mesh" : 9, "name" : "Cylinder.004"}, {"matrix" : [-69.67431640624973, 0, 6.091122435093503E-06, 0, -2.662514178624327E-13, 69.67431640624993, -3.045561098046616E-06, 0, -2.6966326257090295E-06, -1.3483162599499918E-06, -30.845880508422706, 0, 112.54865264892578, -12.740198135375977, -119.0648193359375, 1], "mesh" : 10, "name" : "Cylinder.005"}, {"matrix" : [-69.67431640624973, 0, 6.091122435093503E-06, 0, -2.662514178624327E-13, 69.67431640624993, -3.045561098046616E-06, 0, -2.6966326257090295E-06, -1.3483162599499918E-06, -30.845880508422706, 0, -388.29534912109375, -12.740198135375977, -119.0648193359375, 1], "mesh" : 11, "name" : "Cylinder.006"}, {"matrix" : [69.67431640625, 0, 0, 0, 0, 69.67431640624993, 3.0455610980466273E-06, 0, 0, -1.3483162599499918E-06, 30.84588050842282, 0, -387.7110595703125, -12.740198135375977, 120.39488220214844, 1], "mesh" : 12, "name" : "Cylinder.007"}, {"matrix" : [6.995312213897705, 0, 0, 0, 0, -3.057748203664742E-07, -6.995312213897698, 0, 0, 6.995312213897698, -3.057748203664742E-07, 0, -310.20294189453125, 239.9359893798828, -78.48678588867188, 1], "mesh" : 13, "name" : "Cube.001"}, {"matrix" : [6.995312213897705, 0, 0, 0, 0, -3.057748203664742E-07, -6.995312213897698, 0, 0, 6.995312213897698, -3.057748203664742E-07, 0, -310.20294189453125, 239.9359893798828, 83.35357666015625, 1], "mesh" : 14, "name" : "Cube.006"}, {"matrix" : [6.995312213897705, 0, 0, 0, 0, -3.057748203664742E-07, -6.995312213897698, 0, 0, 6.995312213897698, -3.057748203664742E-07, 0, 450.61517333984375, 231.53500366210938, 83.35357666015625, 1], "mesh" : 15, "name" : "Cube.007"}, {"matrix" : [6.995312213897705, 0, 0, 0, 0, -3.057748203664742E-07, -6.995312213897698, 0, 0, 6.995312213897698, -3.057748203664742E-07, 0, 450.61517333984375, 231.53500366210938, -78.48678588867188, 1], "mesh" : 16, "name" : "Cube.008"}], "samplers" : [{"magFilter" : 9729, "minFilter" : 9729, "wrapS" : 10497, "wrapT" : 10497}], "scene" : 0, "scenes" : [{"nodes" : [0, 1, 2, 3, 4, 5, 6, 7, 8, 9, 10, 11, 12, 13, 14, 15, 16]}], "textures" : [{"sampler" : 0, "source" : 0, "name" : "base_color_texture"}]}
