{"accessors" : [{"bufferView" : 0, "byteOffset" : 0, "componentType" : 5123, "count" : 2376, "type" : "SCALAR", "max" : [2375], "min" : [0]}, {"bufferView" : 1, "byteOffset" : 0, "componentType" : 5126, "count" : 2376, "type" : "VEC3", "max" : [0.00011444091796875, 1.6159181594848633, 7.069762229919434], "min" : [-105.89591979980469, -2.321476459503174, -1.1194138526916504], "name" : "POSITION"}, {"bufferView" : 1, "byteOffset" : 12, "componentType" : 5126, "count" : 2376, "type" : "VEC3", "max" : [1.0000044107437134, 1.0000044107437134, 1.0000044107437134], "min" : [-1.0000044107437134, -1.0000044107437134, -1.0000044107437134], "name" : "NORMAL"}, {"bufferView" : 1, "byteOffset" : 24, "componentType" : 5126, "count" : 2376, "type" : "VEC2", "max" : [0.19662009179592133, 0.9820210933685303], "min" : [0.029697731137275696, 0.8109477162361145], "name" : "TEXCOORD_0"}, {"bufferView" : 0, "byteOffset" : 4752, "componentType" : 5123, "count" : 4980, "type" : "SCALAR", "max" : [4979], "min" : [0]}, {"bufferView" : 2, "byteOffset" : 0, "componentType" : 5126, "count" : 4980, "type" : "VEC3", "max" : [0.9933855533599854, 0.9933856129646301, 0.5984671711921692], "min" : [-0.9933856725692749, -0.9933856129646301, -1.4015331268310547], "name" : "POSITION"}, {"bufferView" : 2, "byteOffset" : 12, "componentType" : 5126, "count" : 4980, "type" : "VEC3", "max" : [1.0000042915344238, 1.0000044107437134, 1.0000044107437134], "min" : [-1.0000044107437134, -1.0000044107437134, -0.9869495630264282], "name" : "NORMAL"}, {"bufferView" : 2, "byteOffset" : 24, "componentType" : 5126, "count" : 4980, "type" : "VEC2", "max" : [0.9638620615005493, 0.9822770357131958], "min" : [0.3894105851650238, 0.5799015164375305], "name" : "TEXCOORD_0"}, {"bufferView" : 0, "byteOffset" : 14712, "componentType" : 5123, "count" : 2340, "type" : "SCALAR", "max" : [2339], "min" : [0]}, {"bufferView" : 3, "byteOffset" : 0, "componentType" : 5126, "count" : 2340, "type" : "VEC3", "max" : [1.993804931640625, 1.06094491481781, 3.3257408142089844], "min" : [-2.3823471069335938, -0.9390550255775452, -0.8339519500732422], "name" : "POSITION"}, {"bufferView" : 3, "byteOffset" : 12, "componentType" : 5126, "count" : 2340, "type" : "VEC3", "max" : [1.0000044107437134, 1.0000044107437134, 1.0000044107437134], "min" : [-1.0000044107437134, -1.0000044107437134, -1.0000044107437134], "name" : "NORMAL"}, {"bufferView" : 3, "byteOffset" : 24, "componentType" : 5126, "count" : 2340, "type" : "VEC2", "max" : [0.20077107846736908, 0.9820210933685303], "min" : [0.12119613587856293, 0.9559298157691956], "name" : "TEXCOORD_0"}, {"bufferView" : 0, "byteOffset" : 19392, "componentType" : 5123, "count" : 840, "type" : "SCALAR", "max" : [839], "min" : [0]}, {"bufferView" : 4, "byteOffset" : 0, "componentType" : 5126, "count" : 840, "type" : "VEC3", "max" : [88.16065979003906, 0.9999974370002747, 13.704024314880371], "min" : [-154.0718536376953, -1.0000027418136597, -52.61567306518555], "name" : "POSITION"}, {"bufferView" : 4, "byteOffset" : 12, "componentType" : 5126, "count" : 840, "type" : "VEC3", "max" : [1.0000041723251343, 1.0000044107437134, 1.0000033378601074], "min" : [-1.0000019073486328, -1.0000044107437134, -1.0000044107437134], "name" : "NORMAL"}, {"bufferView" : 4, "byteOffset" : 24, "componentType" : 5126, "count" : 840, "type" : "VEC2", "max" : [0.2637993395328522, 0.7052055597305298], "min" : [0.04870074987411499, 0.4901069402694702], "name" : "TEXCOORD_0"}, {"bufferView" : 0, "byteOffset" : 21072, "componentType" : 5123, "count" : 840, "type" : "SCALAR", "max" : [839], "min" : [0]}, {"bufferView" : 5, "byteOffset" : 0, "componentType" : 5126, "count" : 840, "type" : "VEC3", "max" : [88.16065979003906, 0.9999974370002747, 13.704024314880371], "min" : [-154.0718536376953, -1.0000027418136597, -52.61567306518555], "name" : "POSITION"}, {"bufferView" : 5, "byteOffset" : 12, "componentType" : 5126, "count" : 840, "type" : "VEC3", "max" : [1.0000041723251343, 1.0000044107437134, 1.0000033378601074], "min" : [-1.0000019073486328, -1.0000044107437134, -1.0000044107437134], "name" : "NORMAL"}, {"bufferView" : 5, "byteOffset" : 24, "componentType" : 5126, "count" : 840, "type" : "VEC2", "max" : [0.2637993395328522, 0.7052055597305298], "min" : [0.04870074987411499, 0.4901069402694702], "name" : "TEXCOORD_0"}, {"bufferView" : 0, "byteOffset" : 22752, "componentType" : 5123, "count" : 426, "type" : "SCALAR", "max" : [425], "min" : [0]}, {"bufferView" : 6, "byteOffset" : 0, "componentType" : 5126, "count" : 426, "type" : "VEC3", "max" : [7.000354766845703, 1.000000238418579, 1.4450119733810425], "min" : [-4.463925838470459, -0.315988689661026, -0.9919054508209229], "name" : "POSITION"}, {"bufferView" : 6, "byteOffset" : 12, "componentType" : 5126, "count" : 426, "type" : "VEC3", "max" : [0.999175488948822, 1.0000044107437134, 1.0000044107437134], "min" : [-1.0000044107437134, -1.0000044107437134, -1.0000044107437134], "name" : "NORMAL"}, {"bufferView" : 6, "byteOffset" : 24, "componentType" : 5126, "count" : 426, "type" : "VEC2", "max" : [0.9559655785560608, 0.5923600792884827], "min" : [0.06652770191431046, 0.023073196411132812], "name" : "TEXCOORD_0"}, {"bufferView" : 0, "byteOffset" : 23604, "componentType" : 5123, "count" : 4980, "type" : "SCALAR", "max" : [4979], "min" : [0]}, {"bufferView" : 7, "byteOffset" : 0, "componentType" : 5126, "count" : 4980, "type" : "VEC3", "max" : [0.9933855533599854, 0.9933856129646301, 0.5984671711921692], "min" : [-0.9933856725692749, -0.9933856129646301, -1.4015331268310547], "name" : "POSITION"}, {"bufferView" : 7, "byteOffset" : 12, "componentType" : 5126, "count" : 4980, "type" : "VEC3", "max" : [1.0000042915344238, 1.0000044107437134, 1.0000044107437134], "min" : [-1.0000044107437134, -1.0000044107437134, -0.9869495630264282], "name" : "NORMAL"}, {"bufferView" : 7, "byteOffset" : 24, "componentType" : 5126, "count" : 4980, "type" : "VEC2", "max" : [0.9638620615005493, 0.9822770357131958], "min" : [0.3894105851650238, 0.5799015164375305], "name" : "TEXCOORD_0"}, {"bufferView" : 0, "byteOffset" : 33564, "componentType" : 5123, "count" : 4980, "type" : "SCALAR", "max" : [4979], "min" : [0]}, {"bufferView" : 8, "byteOffset" : 0, "componentType" : 5126, "count" : 4980, "type" : "VEC3", "max" : [0.9933855533599854, 0.9933856129646301, 0.5984671711921692], "min" : [-0.9933856725692749, -0.9933856129646301, -1.4015331268310547], "name" : "POSITION"}, {"bufferView" : 8, "byteOffset" : 12, "componentType" : 5126, "count" : 4980, "type" : "VEC3", "max" : [1.0000042915344238, 1.0000044107437134, 1.0000044107437134], "min" : [-1.0000044107437134, -1.0000044107437134, -0.9869495630264282], "name" : "NORMAL"}, {"bufferView" : 8, "byteOffset" : 24, "componentType" : 5126, "count" : 4980, "type" : "VEC2", "max" : [0.9638620615005493, 0.9822770357131958], "min" : [0.3894105851650238, 0.5799015164375305], "name" : "TEXCOORD_0"}, {"bufferView" : 0, "byteOffset" : 43524, "componentType" : 5123, "count" : 4980, "type" : "SCALAR", "max" : [4979], "min" : [0]}, {"bufferView" : 9, "byteOffset" : 0, "componentType" : 5126, "count" : 4980, "type" : "VEC3", "max" : [0.9933855533599854, 0.9933856129646301, 0.5984671711921692], "min" : [-0.9933856725692749, -0.9933856129646301, -1.4015331268310547], "name" : "POSITION"}, {"bufferView" : 9, "byteOffset" : 12, "componentType" : 5126, "count" : 4980, "type" : "VEC3", "max" : [1.0000042915344238, 1.0000044107437134, 1.0000044107437134], "min" : [-1.0000044107437134, -1.0000044107437134, -0.9869495630264282], "name" : "NORMAL"}, {"bufferView" : 9, "byteOffset" : 24, "componentType" : 5126, "count" : 4980, "type" : "VEC2", "max" : [0.9638620615005493, 0.9822770357131958], "min" : [0.3894105851650238, 0.5799015164375305], "name" : "TEXCOORD_0"}, {"bufferView" : 0, "byteOffset" : 53484, "componentType" : 5123, "count" : 4980, "type" : "SCALAR", "max" : [4979], "min" : [0]}, {"bufferView" : 10, "byteOffset" : 0, "componentType" : 5126, "count" : 4980, "type" : "VEC3", "max" : [0.9933855533599854, 0.9933856129646301, 0.5984671711921692], "min" : [-0.9933856725692749, -0.9933856129646301, -1.4015331268310547], "name" : "POSITION"}, {"bufferView" : 10, "byteOffset" : 12, "componentType" : 5126, "count" : 4980, "type" : "VEC3", "max" : [1.0000042915344238, 1.0000044107437134, 1.0000044107437134], "min" : [-1.0000044107437134, -1.0000044107437134, -0.9869495630264282], "name" : "NORMAL"}, {"bufferView" : 10, "byteOffset" : 24, "componentType" : 5126, "count" : 4980, "type" : "VEC2", "max" : [0.9638620615005493, 0.9822770357131958], "min" : [0.3894105851650238, 0.5799015164375305], "name" : "TEXCOORD_0"}, {"bufferView" : 0, "byteOffset" : 63444, "componentType" : 5123, "count" : 4980, "type" : "SCALAR", "max" : [4979], "min" : [0]}, {"bufferView" : 11, "byteOffset" : 0, "componentType" : 5126, "count" : 4980, "type" : "VEC3", "max" : [0.9933855533599854, 0.9933856129646301, 0.5984671711921692], "min" : [-0.9933856725692749, -0.9933856129646301, -1.4015331268310547], "name" : "POSITION"}, {"bufferView" : 11, "byteOffset" : 12, "componentType" : 5126, "count" : 4980, "type" : "VEC3", "max" : [1.0000042915344238, 1.0000044107437134, 1.0000044107437134], "min" : [-1.0000044107437134, -1.0000044107437134, -0.9869495630264282], "name" : "NORMAL"}, {"bufferView" : 11, "byteOffset" : 24, "componentType" : 5126, "count" : 4980, "type" : "VEC2", "max" : [0.9638620615005493, 0.9822770357131958], "min" : [0.3894105851650238, 0.5799015164375305], "name" : "TEXCOORD_0"}, {"bufferView" : 0, "byteOffset" : 73404, "componentType" : 5123, "count" : 84, "type" : "SCALAR", "max" : [83], "min" : [0]}, {"bufferView" : 12, "byteOffset" : 0, "componentType" : 5126, "count" : 84, "type" : "VEC3", "max" : [1.7859680652618408, 1.7859692573547363, 1.7121092081069946], "min" : [-1.7859697341918945, -1.785968542098999, -3.831916332244873], "name" : "POSITION"}, {"bufferView" : 12, "byteOffset" : 12, "componentType" : 5126, "count" : 84, "type" : "VEC3", "max" : [1.0000042915344238, 1.0000042915344238, 1.0000044107437134], "min" : [-1.0000042915344238, -1.0000042915344238, -1.0000044107437134], "name" : "NORMAL"}, {"bufferView" : 12, "byteOffset" : 24, "componentType" : 5126, "count" : 84, "type" : "VEC2", "max" : [0.4053574204444885, 0.9665282964706421], "min" : [0.1977924108505249, 0.7589634656906128], "name" : "TEXCOORD_0"}, {"bufferView" : 0, "byteOffset" : 73572, "componentType" : 5123, "count" : 84, "type" : "SCALAR", "max" : [83], "min" : [0]}, {"bufferView" : 13, "byteOffset" : 0, "componentType" : 5126, "count" : 84, "type" : "VEC3", "max" : [1.7859680652618408, 1.7859692573547363, 1.7121092081069946], "min" : [-1.7859697341918945, -1.785968542098999, -3.831916332244873], "name" : "POSITION"}, {"bufferView" : 13, "byteOffset" : 12, "componentType" : 5126, "count" : 84, "type" : "VEC3", "max" : [1.0000042915344238, 1.0000042915344238, 1.0000044107437134], "min" : [-1.0000042915344238, -1.0000042915344238, -1.0000044107437134], "name" : "NORMAL"}, {"bufferView" : 13, "byteOffset" : 24, "componentType" : 5126, "count" : 84, "type" : "VEC2", "max" : [0.4053574204444885, 0.9665282964706421], "min" : [0.1977924108505249, 0.7589634656906128], "name" : "TEXCOORD_0"}, {"bufferView" : 0, "byteOffset" : 73740, "componentType" : 5123, "count" : 84, "type" : "SCALAR", "max" : [83], "min" : [0]}, {"bufferView" : 14, "byteOffset" : 0, "componentType" : 5126, "count" : 84, "type" : "VEC3", "max" : [1.7859680652618408, 1.7859692573547363, 1.7121092081069946], "min" : [-1.7859697341918945, -1.785968542098999, -3.831916332244873], "name" : "POSITION"}, {"bufferView" : 14, "byteOffset" : 12, "componentType" : 5126, "count" : 84, "type" : "VEC3", "max" : [1.0000042915344238, 1.0000042915344238, 1.0000044107437134], "min" : [-1.0000042915344238, -1.0000042915344238, -1.0000044107437134], "name" : "NORMAL"}, {"bufferView" : 14, "byteOffset" : 24, "componentType" : 5126, "count" : 84, "type" : "VEC2", "max" : [0.4053574204444885, 0.9665282964706421], "min" : [0.1977924108505249, 0.7589634656906128], "name" : "TEXCOORD_0"}, {"bufferView" : 0, "byteOffset" : 73908, "componentType" : 5123, "count" : 84, "type" : "SCALAR", "max" : [83], "min" : [0]}, {"bufferView" : 15, "byteOffset" : 0, "componentType" : 5126, "count" : 84, "type" : "VEC3", "max" : [1.7859680652618408, 1.7859692573547363, 1.7121092081069946], "min" : [-1.7859697341918945, -1.785968542098999, -3.831916332244873], "name" : "POSITION"}, {"bufferView" : 15, "byteOffset" : 12, "componentType" : 5126, "count" : 84, "type" : "VEC3", "max" : [1.0000042915344238, 1.0000042915344238, 1.0000044107437134], "min" : [-1.0000042915344238, -1.0000042915344238, -1.0000044107437134], "name" : "NORMAL"}, {"bufferView" : 15, "byteOffset" : 24, "componentType" : 5126, "count" : 84, "type" : "VEC2", "max" : [0.4053574204444885, 0.9665282964706421], "min" : [0.1977924108505249, 0.7589634656906128], "name" : "TEXCOORD_0"}, {"bufferView" : 0, "byteOffset" : 74076, "componentType" : 5123, "count" : 366, "type" : "SCALAR", "max" : [365], "min" : [0]}, {"bufferView" : 16, "byteOffset" : 0, "componentType" : 5126, "count" : 366, "type" : "VEC3", "max" : [7.000354766845703, 2.5113425294875924E-07, 1.4450119733810425], "min" : [-4.463925838470459, -0.9999997615814209, -0.9919054508209229], "name" : "POSITION"}, {"bufferView" : 16, "byteOffset" : 12, "componentType" : 5126, "count" : 366, "type" : "VEC3", "max" : [0.999175488948822, 0.9808722734451294, 0.9991427659988403], "min" : [-1.0000044107437134, -1.0000044107437134, -1.0000044107437134], "name" : "NORMAL"}, {"bufferView" : 16, "byteOffset" : 24, "componentType" : 5126, "count" : 366, "type" : "VEC2", "max" : [0.955748438835144, 0.6715567708015442], "min" : [0.05363859981298447, 0.023073196411132812], "name" : "TEXCOORD_0"}], "asset" : {"generator" : "Aspose.3D 24.9.1", "version" : "2.0"}, "buffers" : [{"uri" : "data:application/octet-stream;base64,", "byteLength" : 1271804}], "bufferViews" : [{"buffer" : 0, "byteOffset" : 0, "byteLength" : 74808, "target" : 34963}, {"buffer" : 0, "byteOffset" : 74812, "byteLength" : 76032, "byteStride" : 32, "target" : 34962}, {"buffer" : 0, "byteOffset" : 150848, "byteLength" : 159360, "byteStride" : 32, "target" : 34962}, {"buffer" : 0, "byteOffset" : 310212, "byteLength" : 74880, "byteStride" : 32, "target" : 34962}, {"buffer" : 0, "byteOffset" : 385096, "byteLength" : 26880, "byteStride" : 32, "target" : 34962}, {"buffer" : 0, "byteOffset" : 411980, "byteLength" : 26880, "byteStride" : 32, "target" : 34962}, {"buffer" : 0, "byteOffset" : 438864, "byteLength" : 13632, "byteStride" : 32, "target" : 34962}, {"buffer" : 0, "byteOffset" : 452500, "byteLength" : 159360, "byteStride" : 32, "target" : 34962}, {"buffer" : 0, "byteOffset" : 611864, "byteLength" : 159360, "byteStride" : 32, "target" : 34962}, {"buffer" : 0, "byteOffset" : 771228, "byteLength" : 159360, "byteStride" : 32, "target" : 34962}, {"buffer" : 0, "byteOffset" : 930592, "byteLength" : 159360, "byteStride" : 32, "target" : 34962}, {"buffer" : 0, "byteOffset" : 1089956, "byteLength" : 159360, "byteStride" : 32, "target" : 34962}, {"buffer" : 0, "byteOffset" : 1249320, "byteLength" : 2688, "byteStride" : 32, "target" : 34962}, {"buffer" : 0, "byteOffset" : 1252012, "byteLength" : 2688, "byteStride" : 32, "target" : 34962}, {"buffer" : 0, "byteOffset" : 1254704, "byteLength" : 2688, "byteStride" : 32, "target" : 34962}, {"buffer" : 0, "byteOffset" : 1257396, "byteLength" : 2688, "byteStride" : 32, "target" : 34962}, {"buffer" : 0, "byteOffset" : 1260088, "byteLength" : 11712, "byteStride" : 32, "target" : 34962}], "images" : [{"uri" : "https://raw.githubusercontent.com/Vansh-Vviation/Geofs-GSE/refs/heads/main/Untitled387_20250114174817.png"}], "materials" : [{"name" : "Material.002", "pbrMetallicRoughness" : {"baseColorFactor" : [1, 1, 1, 1], "baseColorTexture" : {"index" : 0, "texCoord" : 0}, "metallicFactor" : 1, "roughnessFactor" : 1}, "emissiveFactor" : [0, 0, 0], "alphaMode" : "OPAQUE", "doubleSided" : false}], "meshes" : [{"primitives" : [{"attributes" : {"POSITION" : 1, "NORMAL" : 2, "TEXCOORD_0" : 3}, "indices" : 0, "material" : 0, "mode" : 4}], "name" : "Cube.002"}, {"primitives" : [{"attributes" : {"POSITION" : 5, "NORMAL" : 6, "TEXCOORD_0" : 7}, "indices" : 4, "material" : 0, "mode" : 4}], "name" : "Cylinder"}, {"primitives" : [{"attributes" : {"POSITION" : 9, "NORMAL" : 10, "TEXCOORD_0" : 11}, "indices" : 8, "material" : 0, "mode" : 4}], "name" : "Cylinder.002"}, {"primitives" : [{"attributes" : {"POSITION" : 13, "NORMAL" : 14, "TEXCOORD_0" : 15}, "indices" : 12, "material" : 0, "mode" : 4}], "name" : "Cube.003"}, {"primitives" : [{"attributes" : {"POSITION" : 17, "NORMAL" : 18, "TEXCOORD_0" : 19}, "indices" : 16, "material" : 0, "mode" : 4}], "name" : "Cube.005"}, {"primitives" : [{"attributes" : {"POSITION" : 21, "NORMAL" : 22, "TEXCOORD_0" : 23}, "indices" : 20, "material" : 0, "mode" : 4}], "name" : "Cube.006"}, {"primitives" : [{"attributes" : {"POSITION" : 25, "NORMAL" : 26, "TEXCOORD_0" : 27}, "indices" : 24, "material" : 0, "mode" : 4}], "name" : "Cylinder.003"}, {"primitives" : [{"attributes" : {"POSITION" : 29, "NORMAL" : 30, "TEXCOORD_0" : 31}, "indices" : 28, "material" : 0, "mode" : 4}], "name" : "Cylinder.004"}, {"primitives" : [{"attributes" : {"POSITION" : 33, "NORMAL" : 34, "TEXCOORD_0" : 35}, "indices" : 32, "material" : 0, "mode" : 4}], "name" : "Cylinder.005"}, {"primitives" : [{"attributes" : {"POSITION" : 37, "NORMAL" : 38, "TEXCOORD_0" : 39}, "indices" : 36, "material" : 0, "mode" : 4}], "name" : "Cylinder.006"}, {"primitives" : [{"attributes" : {"POSITION" : 41, "NORMAL" : 42, "TEXCOORD_0" : 43}, "indices" : 40, "material" : 0, "mode" : 4}], "name" : "Cylinder.007"}, {"primitives" : [{"attributes" : {"POSITION" : 45, "NORMAL" : 46, "TEXCOORD_0" : 47}, "indices" : 44, "material" : 0, "mode" : 4}], "name" : "Cube.001"}, {"primitives" : [{"attributes" : {"POSITION" : 49, "NORMAL" : 50, "TEXCOORD_0" : 51}, "indices" : 48, "material" : 0, "mode" : 4}], "name" : "Cube.007"}, {"primitives" : [{"attributes" : {"POSITION" : 53, "NORMAL" : 54, "TEXCOORD_0" : 55}, "indices" : 52, "material" : 0, "mode" : 4}], "name" : "Cube.008"}, {"primitives" : [{"attributes" : {"POSITION" : 57, "NORMAL" : 58, "TEXCOORD_0" : 59}, "indices" : 56, "material" : 0, "mode" : 4}], "name" : "Cube.009"}, {"primitives" : [{"attributes" : {"POSITION" : 61, "NORMAL" : 62, "TEXCOORD_0" : 63}, "indices" : 60, "material" : 0, "mode" : 4}], "name" : "Cube.004"}], "nodes" : [{"matrix" : [7.258028030395508, 0, 0, 0, 0, -3.172584938810673E-07, -7.258028030395501, 0, 0, 7.258028030395501, -3.172584938810673E-07, 0, 242.50144958496094, 228.84530639648438, -2.5604488849639893, 1], "mesh" : 0, "name" : "Cube.002"}, {"matrix" : [69.67431640625, 0, 0, 0, 0, 69.67431640624993, 3.0455610980466273E-06, 0, 0, -1.3483162599499918E-06, 30.84588050842282, 0, 113.13296508789062, -12.740198135375977, 132.78053283691406, 1], "mesh" : 1, "name" : "Cylinder"}, {"matrix" : [8.45523738861084, 0, 0, 0, 0, -3.695901790518971E-07, -8.455237388610831, 0, 0, 8.455237388610831, -3.695901790518971E-07, 0, -645.95068359375, 98.94847106933594, 0.515317976474762, 1], "mesh" : 2, "name" : "Cylinder.002"}, {"matrix" : [3.620635747909546, 0, 0, 0, 0, -1.5826302123155897E-07, -3.6206357479095423, 0, 0, 3.6206357479095423, -1.5826302123155897E-07, 0, 190.74583435058594, 215.0249481201172, 100.82870483398438, 1], "mesh" : 3, "name" : "Cube.003"}, {"matrix" : [3.620635747909546, 0, 0, 0, 0, -1.5826302123155897E-07, -3.6206357479095423, 0, 0, 3.6206357479095423, -1.5826302123155897E-07, 0, 190.74583435058594, 215.0249481201172, -100.47747039794922, 1], "mesh" : 4, "name" : "Cube.004"}, {"matrix" : [99.99999999999962, 8.742278000372475E-06, 0, 0, 5.362529736447092E-13, -6.134018772016395E-06, 140.32998657226548, 0, -8.742278000372465E-06, 99.99999999999952, 4.371139000186241E-06, 0, -208.22193908691406, 80.98069763183594, -3.524166822899133E-05, 1], "mesh" : 5, "name" : "Cube.005"}, {"matrix" : [69.67431640625, 0, 0, 0, 0, 69.67431640624993, 3.0455610980466273E-06, 0, 0, -1.3483162599499918E-06, 30.84588050842282, 0, 267.23876953125, -12.740198135375977, 132.78053283691406, 1], "mesh" : 6, "name" : "Cylinder.003"}, {"matrix" : [-69.67431640624973, 0, 6.091122435093503E-06, 0, -2.662514178624327E-13, 69.67431640624993, -3.045561098046616E-06, 0, -2.6966326257090295E-06, -1.3483162599499918E-06, -30.845880508422706, 0, 267.23876953125, -12.740198135375977, -131.45046997070312, 1], "mesh" : 7, "name" : "Cylinder.004"}, {"matrix" : [-69.67431640624973, 0, 6.091122435093503E-06, 0, -2.662514178624327E-13, 69.67431640624993, -3.045561098046616E-06, 0, -2.6966326257090295E-06, -1.3483162599499918E-06, -30.845880508422706, 0, 112.54865264892578, -12.740198135375977, -131.45046997070312, 1], "mesh" : 8, "name" : "Cylinder.005"}, {"matrix" : [-69.67431640624973, 0, 6.091122435093503E-06, 0, -2.662514178624327E-13, 69.67431640624993, -3.045561098046616E-06, 0, -2.6966326257090295E-06, -1.3483162599499918E-06, -30.845880508422706, 0, -388.29534912109375, -12.740198135375977, -131.45046997070312, 1], "mesh" : 9, "name" : "Cylinder.006"}, {"matrix" : [69.67431640625, 0, 0, 0, 0, 69.67431640624993, 3.0455610980466273E-06, 0, 0, -1.3483162599499918E-06, 30.84588050842282, 0, -387.7110595703125, -12.740198135375977, 132.78053283691406, 1], "mesh" : 10, "name" : "Cylinder.007"}, {"matrix" : [6.995312213897705, 0, 0, 0, 0, -3.057748203664742E-07, -6.995312213897698, 0, 0, 6.995312213897698, -3.057748203664742E-07, 0, -310.20294189453125, 238.55531311035156, -78.48678588867188, 1], "mesh" : 11, "name" : "Cube.001"}, {"matrix" : [6.995312213897705, 0, 0, 0, 0, -3.057748203664742E-07, -6.995312213897698, 0, 0, 6.995312213897698, -3.057748203664742E-07, 0, -310.20294189453125, 238.55531311035156, 83.35357666015625, 1], "mesh" : 12, "name" : "Cube.006"}, {"matrix" : [6.995312213897705, 0, 0, 0, 0, -3.057748203664742E-07, -6.995312213897698, 0, 0, 6.995312213897698, -3.057748203664742E-07, 0, 450.61517333984375, 230.15432739257812, 83.35357666015625, 1], "mesh" : 13, "name" : "Cube.007"}, {"matrix" : [6.995312213897705, 0, 0, 0, 0, -3.057748203664742E-07, -6.995312213897698, 0, 0, 6.995312213897698, -3.057748203664742E-07, 0, 450.61517333984375, 230.15432739257812, -78.48678588867188, 1], "mesh" : 14, "name" : "Cube.008"}, {"matrix" : [99.99999999999962, 8.742278000372475E-06, 0, 0, 5.362529736447092E-13, -6.134018772016395E-06, 140.32998657226548, 0, -8.742278000372465E-06, 99.99999999999952, 4.371139000186241E-06, 0, -208.22193908691406, 80.98069763183594, -3.524166822899133E-05, 1], "mesh" : 15, "name" : "Cube.009"}], "samplers" : [{"magFilter" : 9729, "minFilter" : 9729, "wrapS" : 10497, "wrapT" : 10497}], "scene" : 0, "scenes" : [{"nodes" : [0, 1, 2, 3, 4, 5, 6, 7, 8, 9, 10, 11, 12, 13, 14, 15]}], "textures" : [{"sampler" : 0, "source" : 0, "name" : "base_color_texture"}]}
