{"accessors" : [{"bufferView" : 0, "byteOffset" : 0, "componentType" : 5123, "count" : 705, "type" : "SCALAR", "max" : [704], "min" : [0]}, {"bufferView" : 1, "byteOffset" : 0, "componentType" : 5126, "count" : 705, "type" : "VEC3", "max" : [1.05618155002594, 2.0373430252075195, -0.3640305995941162], "min" : [0, -1, -1], "name" : "POSITION"}, {"bufferView" : 1, "byteOffset" : 12, "componentType" : 5126, "count" : 705, "type" : "VEC3", "max" : [1.0000044107437134, 1.0000044107437134, 1.0000044107437134], "min" : [-1.0000044107437134, -1.0000044107437134, -1.0000044107437134], "name" : "NORMAL"}, {"bufferView" : 1, "byteOffset" : 24, "componentType" : 5126, "count" : 705, "type" : "VEC2", "max" : [0.9579594731330872, 0.5564947724342346], "min" : [0.15962785482406616, 0.011277616024017334], "name" : "TEXCOORD_0"}, {"bufferView" : 0, "byteOffset" : 1412, "componentType" : 5123, "count" : 4980, "type" : "SCALAR", "max" : [4979], "min" : [0]}, {"bufferView" : 2, "byteOffset" : 0, "componentType" : 5126, "count" : 4980, "type" : "VEC3", "max" : [0.9961341619491577, 0.9961341619491577, 1.0000003576278687], "min" : [-0.9961341619491577, -0.9961341619491577, -1], "name" : "POSITION"}, {"bufferView" : 2, "byteOffset" : 12, "componentType" : 5126, "count" : 4980, "type" : "VEC3", "max" : [1.0000044107437134, 1.0000044107437134, 1.0000044107437134], "min" : [-1.0000042915344238, -1.0000042915344238, -0.9743870496749878], "name" : "NORMAL"}, {"bufferView" : 2, "byteOffset" : 24, "componentType" : 5126, "count" : 4980, "type" : "VEC2", "max" : [0.2542329430580139, 0.1868283748626709], "min" : [0.03540397435426712, 0.01763540506362915], "name" : "TEXCOORD_0"}, {"bufferView" : 0, "byteOffset" : 11372, "componentType" : 5123, "count" : 4980, "type" : "SCALAR", "max" : [4979], "min" : [0]}, {"bufferView" : 3, "byteOffset" : 0, "componentType" : 5126, "count" : 4980, "type" : "VEC3", "max" : [0.9955363273620605, 0.9955363273620605, 1.0968502759933472], "min" : [-0.9955363273620605, -0.9955363273620605, -1], "name" : "POSITION"}, {"bufferView" : 3, "byteOffset" : 12, "componentType" : 5126, "count" : 4980, "type" : "VEC3", "max" : [1.0000044107437134, 1.0000044107437134, 1.0000044107437134], "min" : [-1.0000044107437134, -1.0000044107437134, -0.9743871688842773], "name" : "NORMAL"}, {"bufferView" : 3, "byteOffset" : 24, "componentType" : 5126, "count" : 4980, "type" : "VEC2", "max" : [0.25210973620414734, 0.3318386673927307], "min" : [0.0358390212059021, 0.033406615257263184], "name" : "TEXCOORD_0"}, {"bufferView" : 0, "byteOffset" : 21332, "componentType" : 5123, "count" : 108, "type" : "SCALAR", "max" : [107], "min" : [0]}, {"bufferView" : 4, "byteOffset" : 0, "componentType" : 5126, "count" : 108, "type" : "VEC3", "max" : [1, 6.704311370849609, 1], "min" : [-1, -1.3917793035507202, -0.9419585466384888], "name" : "POSITION"}, {"bufferView" : 4, "byteOffset" : 12, "componentType" : 5126, "count" : 108, "type" : "VEC3", "max" : [1.0000044107437134, 1.0000044107437134, 1.0000044107437134], "min" : [-1.0000044107437134, -0.9929068684577942, -1.0000044107437134], "name" : "NORMAL"}, {"bufferView" : 4, "byteOffset" : 24, "componentType" : 5126, "count" : 108, "type" : "VEC2", "max" : [0.5560163259506226, 0.9965433478355408], "min" : [0.010029107332229614, 0.44965970516204834], "name" : "TEXCOORD_0"}, {"bufferView" : 0, "byteOffset" : 21548, "componentType" : 5123, "count" : 162, "type" : "SCALAR", "max" : [161], "min" : [0]}, {"bufferView" : 5, "byteOffset" : 0, "componentType" : 5126, "count" : 162, "type" : "VEC3", "max" : [1, 4.143593788146973, 0.8296996355056763], "min" : [-1, -4.289587497711182, -1.001774787902832], "name" : "POSITION"}, {"bufferView" : 5, "byteOffset" : 12, "componentType" : 5126, "count" : 162, "type" : "VEC3", "max" : [1.0000044107437134, 1.0000044107437134, 1.0000033378601074], "min" : [-1.0000044107437134, -0.9795613288879395, -1.0000044107437134], "name" : "NORMAL"}, {"bufferView" : 5, "byteOffset" : 24, "componentType" : 5126, "count" : 162, "type" : "VEC2", "max" : [0.7645131349563599, 0.724932074546814], "min" : [0.5986974239349365, 0.5432932376861572], "name" : "TEXCOORD_0"}, {"bufferView" : 0, "byteOffset" : 21872, "componentType" : 5123, "count" : 72, "type" : "SCALAR", "max" : [71], "min" : [0]}, {"bufferView" : 6, "byteOffset" : 0, "componentType" : 5126, "count" : 72, "type" : "VEC3", "max" : [2.5406744480133057, 17.725662231445312, 0.26544666290283203], "min" : [-2.5406744480133057, 0.006580531597137451, -0.26544618606567383], "name" : "POSITION"}, {"bufferView" : 6, "byteOffset" : 12, "componentType" : 5126, "count" : 72, "type" : "VEC3", "max" : [1.0000044107437134, 1.0000044107437134, 1.0000044107437134], "min" : [-1.0000044107437134, -1.0000044107437134, -1.0000044107437134], "name" : "NORMAL"}, {"bufferView" : 6, "byteOffset" : 24, "componentType" : 5126, "count" : 72, "type" : "VEC2", "max" : [0.9358469843864441, 0.9911336898803711], "min" : [0.7920162081718445, 0.5158051252365112], "name" : "TEXCOORD_0"}, {"bufferView" : 0, "byteOffset" : 22016, "componentType" : 5123, "count" : 72, "type" : "SCALAR", "max" : [71], "min" : [0]}, {"bufferView" : 7, "byteOffset" : 0, "componentType" : 5126, "count" : 72, "type" : "VEC3", "max" : [3.2104556560516357, 17.725662231445312, 0.26544666290283203], "min" : [-3.2104556560516357, 0.006580531597137451, -0.26544618606567383], "name" : "POSITION"}, {"bufferView" : 7, "byteOffset" : 12, "componentType" : 5126, "count" : 72, "type" : "VEC3", "max" : [1.0000044107437134, 1.0000044107437134, 1.0000044107437134], "min" : [-1.0000044107437134, -1.0000044107437134, -1.0000044107437134], "name" : "NORMAL"}, {"bufferView" : 7, "byteOffset" : 24, "componentType" : 5126, "count" : 72, "type" : "VEC2", "max" : [0.9358469843864441, 0.9911336898803711], "min" : [0.8283275365829468, 0.5158051252365112], "name" : "TEXCOORD_0"}, {"bufferView" : 0, "byteOffset" : 22160, "componentType" : 5123, "count" : 705, "type" : "SCALAR", "max" : [704], "min" : [0]}, {"bufferView" : 8, "byteOffset" : 0, "componentType" : 5126, "count" : 705, "type" : "VEC3", "max" : [1.05618155002594, 2.0373430252075195, -0.3640305995941162], "min" : [0, -1, -1], "name" : "POSITION"}, {"bufferView" : 8, "byteOffset" : 12, "componentType" : 5126, "count" : 705, "type" : "VEC3", "max" : [1.0000044107437134, 1.0000044107437134, 1.0000044107437134], "min" : [-1.0000044107437134, -1.0000044107437134, -1.0000044107437134], "name" : "NORMAL"}, {"bufferView" : 8, "byteOffset" : 24, "componentType" : 5126, "count" : 705, "type" : "VEC2", "max" : [0.9806563258171082, 0.6565062999725342], "min" : [0.15962785482406616, 0.011277616024017334], "name" : "TEXCOORD_0"}, {"bufferView" : 0, "byteOffset" : 23572, "componentType" : 5123, "count" : 132, "type" : "SCALAR", "max" : [131], "min" : [0]}, {"bufferView" : 9, "byteOffset" : 0, "componentType" : 5126, "count" : 132, "type" : "VEC3", "max" : [1, 6.561492443084717, 1.2080682516098022], "min" : [-1, -1, -1], "name" : "POSITION"}, {"bufferView" : 9, "byteOffset" : 12, "componentType" : 5126, "count" : 132, "type" : "VEC3", "max" : [0.9807896018028259, 1.0000044107437134, 0.9807896018028259], "min" : [-0.9807896018028259, -1.0000044107437134, -0.9807896018028259], "name" : "NORMAL"}, {"bufferView" : 9, "byteOffset" : 24, "componentType" : 5126, "count" : 132, "type" : "VEC2", "max" : [0.37379080057144165, 0.42994225025177], "min" : [0.18326827883720398, 0.28206896781921387], "name" : "TEXCOORD_0"}, {"bufferView" : 0, "byteOffset" : 23836, "componentType" : 5123, "count" : 132, "type" : "SCALAR", "max" : [131], "min" : [0]}, {"bufferView" : 10, "byteOffset" : 0, "componentType" : 5126, "count" : 132, "type" : "VEC3", "max" : [1, 6.561492443084717, 1.2080682516098022], "min" : [-1, -1, -1], "name" : "POSITION"}, {"bufferView" : 10, "byteOffset" : 12, "componentType" : 5126, "count" : 132, "type" : "VEC3", "max" : [0.9807896018028259, 1.0000044107437134, 0.9807896018028259], "min" : [-0.9807896018028259, -1.0000044107437134, -0.9807896018028259], "name" : "NORMAL"}, {"bufferView" : 10, "byteOffset" : 24, "componentType" : 5126, "count" : 132, "type" : "VEC2", "max" : [0.37379080057144165, 0.42994225025177], "min" : [0.18326827883720398, 0.28206896781921387], "name" : "TEXCOORD_0"}, {"bufferView" : 0, "byteOffset" : 24100, "componentType" : 5123, "count" : 4980, "type" : "SCALAR", "max" : [4979], "min" : [0]}, {"bufferView" : 11, "byteOffset" : 0, "componentType" : 5126, "count" : 4980, "type" : "VEC3", "max" : [0.9961341619491577, 0.9961341619491577, 1.0000003576278687], "min" : [-0.9961341619491577, -0.9961341619491577, -1], "name" : "POSITION"}, {"bufferView" : 11, "byteOffset" : 12, "componentType" : 5126, "count" : 4980, "type" : "VEC3", "max" : [1.0000044107437134, 1.0000044107437134, 1.0000044107437134], "min" : [-1.0000042915344238, -1.0000042915344238, -0.9743870496749878], "name" : "NORMAL"}, {"bufferView" : 11, "byteOffset" : 24, "componentType" : 5126, "count" : 4980, "type" : "VEC2", "max" : [0.2542329430580139, 0.1868283748626709], "min" : [0.03540397435426712, 0.01763540506362915], "name" : "TEXCOORD_0"}, {"bufferView" : 0, "byteOffset" : 34060, "componentType" : 5123, "count" : 4980, "type" : "SCALAR", "max" : [4979], "min" : [0]}, {"bufferView" : 12, "byteOffset" : 0, "componentType" : 5126, "count" : 4980, "type" : "VEC3", "max" : [0.9961341619491577, 0.9961341619491577, 1.0000003576278687], "min" : [-0.9961341619491577, -0.9961341619491577, -1], "name" : "POSITION"}, {"bufferView" : 12, "byteOffset" : 12, "componentType" : 5126, "count" : 4980, "type" : "VEC3", "max" : [1.0000042915344238, 1.0000042915344238, 0.974386990070343], "min" : [-1.0000044107437134, -1.0000044107437134, -1.0000044107437134], "name" : "NORMAL"}, {"bufferView" : 12, "byteOffset" : 24, "componentType" : 5126, "count" : 4980, "type" : "VEC2", "max" : [0.2542329430580139, 0.1868283748626709], "min" : [0.03540397435426712, 0.01763540506362915], "name" : "TEXCOORD_0"}, {"bufferView" : 0, "byteOffset" : 44020, "componentType" : 5123, "count" : 4980, "type" : "SCALAR", "max" : [4979], "min" : [0]}, {"bufferView" : 13, "byteOffset" : 0, "componentType" : 5126, "count" : 4980, "type" : "VEC3", "max" : [0.9955363273620605, 0.9955363273620605, 1.0968502759933472], "min" : [-0.9955363273620605, -0.9955363273620605, -1], "name" : "POSITION"}, {"bufferView" : 13, "byteOffset" : 12, "componentType" : 5126, "count" : 4980, "type" : "VEC3", "max" : [1.0000044107437134, 1.0000044107437134, 0.9743871092796326], "min" : [-1.0000044107437134, -1.0000044107437134, -1.0000044107437134], "name" : "NORMAL"}, {"bufferView" : 13, "byteOffset" : 24, "componentType" : 5126, "count" : 4980, "type" : "VEC2", "max" : [0.25210973620414734, 0.3318386673927307], "min" : [0.0358390212059021, 0.033406615257263184], "name" : "TEXCOORD_0"}, {"bufferView" : 0, "byteOffset" : 53980, "componentType" : 5123, "count" : 4980, "type" : "SCALAR", "max" : [4979], "min" : [0]}, {"bufferView" : 14, "byteOffset" : 0, "componentType" : 5126, "count" : 4980, "type" : "VEC3", "max" : [0.9961341619491577, 0.9961341619491577, 1.0000003576278687], "min" : [-0.9961341619491577, -0.9961341619491577, -1], "name" : "POSITION"}, {"bufferView" : 14, "byteOffset" : 12, "componentType" : 5126, "count" : 4980, "type" : "VEC3", "max" : [1.0000042915344238, 1.0000042915344238, 0.974386990070343], "min" : [-1.0000044107437134, -1.0000044107437134, -1.0000044107437134], "name" : "NORMAL"}, {"bufferView" : 14, "byteOffset" : 24, "componentType" : 5126, "count" : 4980, "type" : "VEC2", "max" : [0.2542329430580139, 0.1868283748626709], "min" : [0.03540397435426712, 0.01763540506362915], "name" : "TEXCOORD_0"}], "asset" : {"generator" : "Aspose.3D 24.9.1", "version" : "2.0"}, "buffers" : [{"uri" : "data:application/octet-stream;base64,", "byteLength" : 1086976}], "bufferViews" : [{"buffer" : 0, "byteOffset" : 0, "byteLength" : 63940, "target" : 34963}, {"buffer" : 0, "byteOffset" : 63944, "byteLength" : 22560, "byteStride" : 32, "target" : 34962}, {"buffer" : 0, "byteOffset" : 86508, "byteLength" : 159360, "byteStride" : 32, "target" : 34962}, {"buffer" : 0, "byteOffset" : 245872, "byteLength" : 159360, "byteStride" : 32, "target" : 34962}, {"buffer" : 0, "byteOffset" : 405236, "byteLength" : 3456, "byteStride" : 32, "target" : 34962}, {"buffer" : 0, "byteOffset" : 408696, "byteLength" : 5184, "byteStride" : 32, "target" : 34962}, {"buffer" : 0, "byteOffset" : 413884, "byteLength" : 2304, "byteStride" : 32, "target" : 34962}, {"buffer" : 0, "byteOffset" : 416192, "byteLength" : 2304, "byteStride" : 32, "target" : 34962}, {"buffer" : 0, "byteOffset" : 418500, "byteLength" : 22560, "byteStride" : 32, "target" : 34962}, {"buffer" : 0, "byteOffset" : 441064, "byteLength" : 4224, "byteStride" : 32, "target" : 34962}, {"buffer" : 0, "byteOffset" : 445292, "byteLength" : 4224, "byteStride" : 32, "target" : 34962}, {"buffer" : 0, "byteOffset" : 449520, "byteLength" : 159360, "byteStride" : 32, "target" : 34962}, {"buffer" : 0, "byteOffset" : 608884, "byteLength" : 159360, "byteStride" : 32, "target" : 34962}, {"buffer" : 0, "byteOffset" : 768248, "byteLength" : 159360, "byteStride" : 32, "target" : 34962}, {"buffer" : 0, "byteOffset" : 927612, "byteLength" : 159360, "byteStride" : 32, "target" : 34962}], "images" : [{"uri" : "https://raw.githubusercontent.com/Vansh-Vviation/Geofs-GSE/refs/heads/main/Untitled396_20250126210646.png"}], "materials" : [{"name" : "Material.002", "pbrMetallicRoughness" : {"baseColorFactor" : [1, 1, 1, 1], "baseColorTexture" : {"index" : 0, "texCoord" : 0}, "metallicFactor" : 1, "roughnessFactor" : 1}, "emissiveFactor" : [0, 0, 0], "alphaMode" : "OPAQUE", "doubleSided" : false}], "meshes" : [{"primitives" : [{"attributes" : {"POSITION" : 1, "NORMAL" : 2, "TEXCOORD_0" : 3}, "indices" : 0, "material" : 0, "mode" : 4}], "name" : "Cube"}, {"primitives" : [{"attributes" : {"POSITION" : 5, "NORMAL" : 6, "TEXCOORD_0" : 7}, "indices" : 4, "material" : 0, "mode" : 4}], "name" : "Cylinder.003"}, {"primitives" : [{"attributes" : {"POSITION" : 9, "NORMAL" : 10, "TEXCOORD_0" : 11}, "indices" : 8, "material" : 0, "mode" : 4}], "name" : "Cylinder.004"}, {"primitives" : [{"attributes" : {"POSITION" : 13, "NORMAL" : 14, "TEXCOORD_0" : 15}, "indices" : 12, "material" : 0, "mode" : 4}], "name" : "Cube.001"}, {"primitives" : [{"attributes" : {"POSITION" : 17, "NORMAL" : 18, "TEXCOORD_0" : 19}, "indices" : 16, "material" : 0, "mode" : 4}], "name" : "Cube.002"}, {"primitives" : [{"attributes" : {"POSITION" : 21, "NORMAL" : 22, "TEXCOORD_0" : 23}, "indices" : 20, "material" : 0, "mode" : 4}], "name" : "Cube.008"}, {"primitives" : [{"attributes" : {"POSITION" : 25, "NORMAL" : 26, "TEXCOORD_0" : 27}, "indices" : 24, "material" : 0, "mode" : 4}], "name" : "Cube.009"}, {"primitives" : [{"attributes" : {"POSITION" : 29, "NORMAL" : 30, "TEXCOORD_0" : 31}, "indices" : 28, "material" : 0, "mode" : 4}], "name" : "Cube.005"}, {"primitives" : [{"attributes" : {"POSITION" : 33, "NORMAL" : 34, "TEXCOORD_0" : 35}, "indices" : 32, "material" : 0, "mode" : 4}], "name" : "Cube.006"}, {"primitives" : [{"attributes" : {"POSITION" : 37, "NORMAL" : 38, "TEXCOORD_0" : 39}, "indices" : 36, "material" : 0, "mode" : 4}], "name" : "Cube.007"}, {"primitives" : [{"attributes" : {"POSITION" : 41, "NORMAL" : 42, "TEXCOORD_0" : 43}, "indices" : 40, "material" : 0, "mode" : 4}], "name" : "Cylinder.005"}, {"primitives" : [{"attributes" : {"POSITION" : 45, "NORMAL" : 46, "TEXCOORD_0" : 47}, "indices" : 44, "material" : 0, "mode" : 4}], "name" : "Cylinder.006"}, {"primitives" : [{"attributes" : {"POSITION" : 49, "NORMAL" : 50, "TEXCOORD_0" : 51}, "indices" : 48, "material" : 0, "mode" : 4}], "name" : "Cylinder.007"}, {"primitives" : [{"attributes" : {"POSITION" : 53, "NORMAL" : 54, "TEXCOORD_0" : 55}, "indices" : 52, "material" : 0, "mode" : 4}], "name" : "Cylinder.008"}], "nodes" : [{"matrix" : [31.788551330566406, 0, 0, 0, 0, -4.371139000186241E-06, -99.9999999999999, 0, 0, 99.9999999999999, -4.371139000186241E-06, 0, 3.3755516556845805E-14, 152.02133178710938, 229.27804565429688, 1], "mesh" : 0, "name" : "Cube"}, {"matrix" : [1.0478783821951493E-06, -13.879570007324178, 0, 0, 1.0478783821951463E-06, 7.911261683845287E-14, -13.879570007324178, 0, 6.1484141349792125, 4.641923527478141E-07, 4.641923527478154E-07, 0, 26.17424774169922, 56.340538024902344, 148.83184814453125, 1], "mesh" : 1, "name" : "Cylinder"}, {"matrix" : [1.0172055604932074E-06, -13.47329616546627, 0, 0, 1.0172055604932047E-06, 7.679688322671776E-14, -13.47329616546627, 0, 5.827445983886685, 4.399599315182282E-07, 4.3995993151822947E-07, 0, 26.161596298217773, 57.11042785644531, 291.3215637207031, 1], "mesh" : 2, "name" : "Cylinder.001"}, {"matrix" : [31.471454620361328, 0, 0, 0, 0, -1.3967951297345202E-06, -31.954946517944304, 0, 0, 31.954946517944304, -1.3967951297345202E-06, 0, 0, 106.18199157714844, 236.524658203125, 1], "mesh" : 3, "name" : "Cube.002"}, {"matrix" : [29.593223571777344, 0, 0, 0, 0, -4.7066063768008E-07, -10.767459869384755, 0, 0, 10.767459869384755, -4.7066063768008E-07, 0, 2.8017361312373222E-14, 126.7520751953125, 288.81390380859375, 1], "mesh" : 4, "name" : "Cube.004"}, {"matrix" : [7.231075286865234, 0, 0, 0, 0, -6.001105508552179E-07, 13.72892856597899, 0, 0, -13.72892856597899, -6.001105508552179E-07, 0, 1.0228848879023644E-07, 76.30366516113281, 32.57419967651367, 1], "mesh" : 5, "name" : "Cube.003"}, {"matrix" : [7.231075286865234, 0, 0, 0, 0, -6.001105508552179E-07, -13.72892856597899, 0, 0, 13.72892856597899, -6.001105508552179E-07, 0, 1.0228848879023644E-07, 76.3188705444336, 275.3993225097656, 1], "mesh" : 6, "name" : "Cube.001"}, {"matrix" : [-31.788551330566406, 0, 0, 0, 0, 4.371139000186241E-06, -99.9999999999999, 0, 0, 99.9999999999999, 4.371139000186241E-06, 0, 3.3755516556845805E-14, 152.02133178710938, 229.27804565429688, 1], "mesh" : 7, "name" : "Cube.005"}, {"matrix" : [4.891531467437744, 0, 0, 0, 0, -3.7415988719264623E-07, -8.5597801208496, 0, 0, 8.5597801208496, -3.7415988719264623E-07, 0, 25.785011291503906, 63.47867965698242, 254.69064331054688, 1], "mesh" : 8, "name" : "Cube.006"}, {"matrix" : [4.891531467437744, 0, 0, 0, 0, -3.7415988719264623E-07, -8.5597801208496, 0, 0, 8.5597801208496, -3.7415988719264623E-07, 0, -24.593698501586914, 63.47867965698242, 254.69064331054688, 1], "mesh" : 9, "name" : "Cube.007"}, {"matrix" : [1.0478783821951493E-06, -13.879570007324178, 0, 0, 1.0478783821951463E-06, 7.911261683845287E-14, -13.879570007324178, 0, 6.1484141349792125, 4.641923527478141E-07, 4.641923527478154E-07, 0, 26.17424774169922, 56.340538024902344, 116.268798828125, 1], "mesh" : 10, "name" : "Cylinder.002"}, {"matrix" : [-1.0478783821951474E-06, -13.879570007324155, -8.27286741301449E-07, 0, -6.066952351898883E-07, 8.272867871056664E-07, -13.87957000732418, 0, -6.148414134979224, 4.6419233672872715E-07, 2.6875572814704094E-07, 0, -25.86724853515625, 56.340538024902344, 116.268798828125, 1], "mesh" : 11, "name" : "Cylinder.003"}, {"matrix" : [-1.0172055604932057E-06, -13.473296165466246, -8.030709361627244E-07, 0, -5.889364426691246E-07, 8.030709806261901E-07, -13.473296165466271, 0, -5.8274459838866965, 4.3995991633539216E-07, 2.547257641164587E-07, 0, -25.854597091674805, 57.11042785644531, 291.3215637207031, 1], "mesh" : 12, "name" : "Cylinder.004"}, {"matrix" : [-1.0478783821951474E-06, -13.879570007324155, -8.27286741301449E-07, 0, -6.066952351898883E-07, 8.272867871056664E-07, -13.87957000732418, 0, -6.148414134979224, 4.6419233672872715E-07, 2.6875572814704094E-07, 0, -25.86724853515625, 56.340538024902344, 148.83184814453125, 1], "mesh" : 13, "name" : "Cylinder.005"}], "samplers" : [{"magFilter" : 9729, "minFilter" : 9729, "wrapS" : 10497, "wrapT" : 10497}], "scene" : 0, "scenes" : [{"nodes" : [0, 1, 2, 3, 4, 5, 6, 7, 8, 9, 10, 11, 12, 13]}], "textures" : [{"sampler" : 0, "source" : 0, "name" : "base_color_texture"}]}
