{"accessors" : [{"bufferView" : 0, "byteOffset" : 0, "componentType" : 5123, "count" : 132, "type" : "SCALAR", "max" : [131], "min" : [0]}, {"bufferView" : 1, "byteOffset" : 0, "componentType" : 5126, "count" : 132, "type" : "VEC3", "max" : [1, 0.4133490324020386, 0.5261664390563965], "min" : [0.26950955390930176, -1, -1], "name" : "POSITION"}, {"bufferView" : 1, "byteOffset" : 12, "componentType" : 5126, "count" : 132, "type" : "VEC3", "max" : [1.0000044107437134, 1.0000044107437134, 1.0000044107437134], "min" : [-1.0000044107437134, -1.0000044107437134, -1.0000044107437134], "name" : "NORMAL"}, {"bufferView" : 1, "byteOffset" : 24, "componentType" : 5126, "count" : 132, "type" : "VEC2", "max" : [0.42847761511802673, 0.3334873914718628], "min" : [0.03157106041908264, 0.03042316436767578], "name" : "TEXCOORD_0"}, {"bufferView" : 0, "byteOffset" : 264, "componentType" : 5123, "count" : 2484, "type" : "SCALAR", "max" : [2483], "min" : [0]}, {"bufferView" : 2, "byteOffset" : 0, "componentType" : 5126, "count" : 2484, "type" : "VEC3", "max" : [0.9907196760177612, 0.9907196760177612, 1.000000238418579], "min" : [-0.9907196760177612, -0.9907196760177612, -1], "name" : "POSITION"}, {"bufferView" : 2, "byteOffset" : 12, "componentType" : 5126, "count" : 2484, "type" : "VEC3", "max" : [1.0000044107437134, 1.0000044107437134, 1.0000044107437134], "min" : [-1.0000044107437134, -1.0000044107437134, -1.0000044107437134], "name" : "NORMAL"}, {"bufferView" : 2, "byteOffset" : 24, "componentType" : 5126, "count" : 2484, "type" : "VEC2", "max" : [0.6803708076477051, 0.2154771089553833], "min" : [0.5939414501190186, 0.04814457893371582], "name" : "TEXCOORD_0"}, {"bufferView" : 0, "byteOffset" : 5232, "componentType" : 5123, "count" : 582, "type" : "SCALAR", "max" : [581], "min" : [0]}, {"bufferView" : 3, "byteOffset" : 0, "componentType" : 5126, "count" : 582, "type" : "VEC3", "max" : [16.456483840942383, 117.99927520751953, 3.035374402999878], "min" : [-16.146276473999023, -26.965877532958984, -8.04851245880127], "name" : "POSITION"}, {"bufferView" : 3, "byteOffset" : 12, "componentType" : 5126, "count" : 582, "type" : "VEC3", "max" : [1.0000044107437134, 1.0000044107437134, 1.0000044107437134], "min" : [-1.0000044107437134, -1.0000044107437134, -1.0000044107437134], "name" : "NORMAL"}, {"bufferView" : 3, "byteOffset" : 24, "componentType" : 5126, "count" : 582, "type" : "VEC2", "max" : [0.44807446002960205, 0.9800052642822266], "min" : [0.018921896815299988, 0.5508420467376709], "name" : "TEXCOORD_0"}, {"bufferView" : 0, "byteOffset" : 6396, "componentType" : 5123, "count" : 2292, "type" : "SCALAR", "max" : [2291], "min" : [0]}, {"bufferView" : 4, "byteOffset" : 0, "componentType" : 5126, "count" : 2292, "type" : "VEC3", "max" : [0.9915795922279358, 0.9915795922279358, 1.000000238418579], "min" : [-0.9915795922279358, -0.9915795922279358, -1], "name" : "POSITION"}, {"bufferView" : 4, "byteOffset" : 12, "componentType" : 5126, "count" : 2292, "type" : "VEC3", "max" : [1.0000044107437134, 1.0000044107437134, 1.0000044107437134], "min" : [-1.0000044107437134, -1.0000044107437134, -1.0000044107437134], "name" : "NORMAL"}, {"bufferView" : 4, "byteOffset" : 24, "componentType" : 5126, "count" : 2292, "type" : "VEC2", "max" : [0.5579426288604736, 0.2145857810974121], "min" : [0.47144216299057007, 0.0477982759475708], "name" : "TEXCOORD_0"}, {"bufferView" : 0, "byteOffset" : 10980, "componentType" : 5123, "count" : 1308, "type" : "SCALAR", "max" : [1307], "min" : [0]}, {"bufferView" : 5, "byteOffset" : 0, "componentType" : 5126, "count" : 1308, "type" : "VEC3", "max" : [1, 1, 0.9871796369552612], "min" : [-1, -1, -5.233921527862549], "name" : "POSITION"}, {"bufferView" : 5, "byteOffset" : 12, "componentType" : 5126, "count" : 1308, "type" : "VEC3", "max" : [1.0000044107437134, 1.0000044107437134, 1.0000044107437134], "min" : [-1.0000044107437134, -1.0000044107437134, -1.0000044107437134], "name" : "NORMAL"}, {"bufferView" : 5, "byteOffset" : 24, "componentType" : 5126, "count" : 1308, "type" : "VEC2", "max" : [0.9775289297103882, 0.2978414297103882], "min" : [0.7568460702896118, 0.07715857028961182], "name" : "TEXCOORD_0"}, {"bufferView" : 0, "byteOffset" : 13596, "componentType" : 5123, "count" : 1140, "type" : "SCALAR", "max" : [1139], "min" : [0]}, {"bufferView" : 6, "byteOffset" : 0, "componentType" : 5126, "count" : 1140, "type" : "VEC3", "max" : [1, 1.1740503311157227, 2.374401569366455], "min" : [-1, -1.0364320278167725, -4.300498008728027], "name" : "POSITION"}, {"bufferView" : 6, "byteOffset" : 12, "componentType" : 5126, "count" : 1140, "type" : "VEC3", "max" : [0.9809865355491638, 1.0000042915344238, 0.9814521074295044], "min" : [-0.9809865355491638, -0.9854803085327148, -0.9814753532409668], "name" : "NORMAL"}, {"bufferView" : 6, "byteOffset" : 24, "componentType" : 5126, "count" : 1140, "type" : "VEC2", "max" : [0.9802030324935913, 0.981480598449707], "min" : [0.44006553292274475, 0.31830894947052], "name" : "TEXCOORD_0"}, {"bufferView" : 0, "byteOffset" : 15876, "componentType" : 5123, "count" : 2292, "type" : "SCALAR", "max" : [2291], "min" : [0]}, {"bufferView" : 7, "byteOffset" : 0, "componentType" : 5126, "count" : 2292, "type" : "VEC3", "max" : [0.9915795922279358, 0.9915795922279358, 1.000000238418579], "min" : [-0.9915795922279358, -0.9915795922279358, -1], "name" : "POSITION"}, {"bufferView" : 7, "byteOffset" : 12, "componentType" : 5126, "count" : 2292, "type" : "VEC3", "max" : [1.0000044107437134, 1.0000044107437134, 1.0000044107437134], "min" : [-1.0000044107437134, -1.0000044107437134, -1.0000044107437134], "name" : "NORMAL"}, {"bufferView" : 7, "byteOffset" : 24, "componentType" : 5126, "count" : 2292, "type" : "VEC2", "max" : [0.5579426288604736, 0.2145857810974121], "min" : [0.47144216299057007, 0.0477982759475708], "name" : "TEXCOORD_0"}, {"bufferView" : 0, "byteOffset" : 20460, "componentType" : 5123, "count" : 2484, "type" : "SCALAR", "max" : [2483], "min" : [0]}, {"bufferView" : 8, "byteOffset" : 0, "componentType" : 5126, "count" : 2484, "type" : "VEC3", "max" : [0.9907196760177612, 0.9907196760177612, 1.000000238418579], "min" : [-0.9907196760177612, -0.9907196760177612, -1], "name" : "POSITION"}, {"bufferView" : 8, "byteOffset" : 12, "componentType" : 5126, "count" : 2484, "type" : "VEC3", "max" : [1.0000044107437134, 1.0000044107437134, 1.0000044107437134], "min" : [-1.0000044107437134, -1.0000044107437134, -1.0000044107437134], "name" : "NORMAL"}, {"bufferView" : 8, "byteOffset" : 24, "componentType" : 5126, "count" : 2484, "type" : "VEC2", "max" : [0.6803708076477051, 0.2154771089553833], "min" : [0.5939414501190186, 0.04814457893371582], "name" : "TEXCOORD_0"}, {"bufferView" : 0, "byteOffset" : 25428, "componentType" : 5123, "count" : 2292, "type" : "SCALAR", "max" : [2291], "min" : [0]}, {"bufferView" : 9, "byteOffset" : 0, "componentType" : 5126, "count" : 2292, "type" : "VEC3", "max" : [0.9915795922279358, 0.9915795922279358, 1.000000238418579], "min" : [-0.9915795922279358, -0.9915795922279358, -1], "name" : "POSITION"}, {"bufferView" : 9, "byteOffset" : 12, "componentType" : 5126, "count" : 2292, "type" : "VEC3", "max" : [1.0000044107437134, 1.0000044107437134, 1.0000044107437134], "min" : [-1.0000044107437134, -1.0000044107437134, -1.0000044107437134], "name" : "NORMAL"}, {"bufferView" : 9, "byteOffset" : 24, "componentType" : 5126, "count" : 2292, "type" : "VEC2", "max" : [0.5579426288604736, 0.2145857810974121], "min" : [0.47144216299057007, 0.0477982759475708], "name" : "TEXCOORD_0"}, {"bufferView" : 0, "byteOffset" : 30012, "componentType" : 5123, "count" : 2292, "type" : "SCALAR", "max" : [2291], "min" : [0]}, {"bufferView" : 10, "byteOffset" : 0, "componentType" : 5126, "count" : 2292, "type" : "VEC3", "max" : [0.9915795922279358, 0.9915795922279358, 1.000000238418579], "min" : [-0.9915795922279358, -0.9915795922279358, -1], "name" : "POSITION"}, {"bufferView" : 10, "byteOffset" : 12, "componentType" : 5126, "count" : 2292, "type" : "VEC3", "max" : [1.0000044107437134, 1.0000044107437134, 1.0000044107437134], "min" : [-1.0000044107437134, -1.0000044107437134, -1.0000044107437134], "name" : "NORMAL"}, {"bufferView" : 10, "byteOffset" : 24, "componentType" : 5126, "count" : 2292, "type" : "VEC2", "max" : [0.5579426288604736, 0.2145857810974121], "min" : [0.47144216299057007, 0.0477982759475708], "name" : "TEXCOORD_0"}, {"bufferView" : 0, "byteOffset" : 34596, "componentType" : 5123, "count" : 36, "type" : "SCALAR", "max" : [35], "min" : [0]}, {"bufferView" : 11, "byteOffset" : 0, "componentType" : 5126, "count" : 36, "type" : "VEC3", "max" : [1, 31.009197235107422, 1], "min" : [-1, -2.3572001457214355, -1], "name" : "POSITION"}, {"bufferView" : 11, "byteOffset" : 12, "componentType" : 5126, "count" : 36, "type" : "VEC3", "max" : [1.0000044107437134, 1.0000044107437134, 1.0000044107437134], "min" : [-1.0000044107437134, -1.0000044107437134, -1.0000044107437134], "name" : "NORMAL"}, {"bufferView" : 11, "byteOffset" : 24, "componentType" : 5126, "count" : 36, "type" : "VEC2", "max" : [0.4474092125892639, 0.5466604232788086], "min" : [0.3355633020401001, 0.39753252267837524], "name" : "TEXCOORD_0"}], "asset" : {"generator" : "Aspose.3D 24.6.0", "version" : "2.0"}, "buffers" : [{"uri" : "data:application/octet-stream;base64,", "byteLength" : 589404}], "bufferViews" : [{"buffer" : 0, "byteOffset" : 0, "byteLength" : 34668, "target" : 34963}, {"buffer" : 0, "byteOffset" : 34672, "byteLength" : 4224, "byteStride" : 32, "target" : 34962}, {"buffer" : 0, "byteOffset" : 38900, "byteLength" : 79488, "byteStride" : 32, "target" : 34962}, {"buffer" : 0, "byteOffset" : 118392, "byteLength" : 18624, "byteStride" : 32, "target" : 34962}, {"buffer" : 0, "byteOffset" : 137020, "byteLength" : 73344, "byteStride" : 32, "target" : 34962}, {"buffer" : 0, "byteOffset" : 210368, "byteLength" : 41856, "byteStride" : 32, "target" : 34962}, {"buffer" : 0, "byteOffset" : 252228, "byteLength" : 36480, "byteStride" : 32, "target" : 34962}, {"buffer" : 0, "byteOffset" : 288712, "byteLength" : 73344, "byteStride" : 32, "target" : 34962}, {"buffer" : 0, "byteOffset" : 362060, "byteLength" : 79488, "byteStride" : 32, "target" : 34962}, {"buffer" : 0, "byteOffset" : 441552, "byteLength" : 73344, "byteStride" : 32, "target" : 34962}, {"buffer" : 0, "byteOffset" : 514900, "byteLength" : 73344, "byteStride" : 32, "target" : 34962}, {"buffer" : 0, "byteOffset" : 588248, "byteLength" : 1152, "byteStride" : 32, "target" : 34962}], "images" : [{"uri" : "https://raw.githubusercontent.com/Vansh-Vviation/Geofs-GSE/refs/heads/main/Untitled393_20250121183641.png"}], "materials" : [{"name" : "Material", "pbrMetallicRoughness" : {"baseColorFactor" : [1, 1, 1, 1], "baseColorTexture" : {"index" : 0, "texCoord" : 0}, "metallicFactor" : 1, "roughnessFactor" : 1}, "emissiveFactor" : [0, 0, 0], "alphaMode" : "OPAQUE", "doubleSided" : false}], "meshes" : [{"primitives" : [{"attributes" : {"POSITION" : 1, "NORMAL" : 2, "TEXCOORD_0" : 3}, "indices" : 0, "material" : 0, "mode" : 4}], "name" : "Cube"}, {"primitives" : [{"attributes" : {"POSITION" : 5, "NORMAL" : 6, "TEXCOORD_0" : 7}, "indices" : 4, "material" : 0, "mode" : 4}], "name" : "Cylinder.003"}, {"primitives" : [{"attributes" : {"POSITION" : 9, "NORMAL" : 10, "TEXCOORD_0" : 11}, "indices" : 8, "material" : 0, "mode" : 4}], "name" : "Cube.001"}, {"primitives" : [{"attributes" : {"POSITION" : 13, "NORMAL" : 14, "TEXCOORD_0" : 15}, "indices" : 12, "material" : 0, "mode" : 4}], "name" : "Cylinder.004"}, {"primitives" : [{"attributes" : {"POSITION" : 17, "NORMAL" : 18, "TEXCOORD_0" : 19}, "indices" : 16, "material" : 0, "mode" : 4}], "name" : "Cube.002"}, {"primitives" : [{"attributes" : {"POSITION" : 21, "NORMAL" : 22, "TEXCOORD_0" : 23}, "indices" : 20, "material" : 0, "mode" : 4}], "name" : "Cylinder.005"}, {"primitives" : [{"attributes" : {"POSITION" : 25, "NORMAL" : 26, "TEXCOORD_0" : 27}, "indices" : 24, "material" : 0, "mode" : 4}], "name" : "Cylinder.006"}, {"primitives" : [{"attributes" : {"POSITION" : 29, "NORMAL" : 30, "TEXCOORD_0" : 31}, "indices" : 28, "material" : 0, "mode" : 4}], "name" : "Cylinder.007"}, {"primitives" : [{"attributes" : {"POSITION" : 33, "NORMAL" : 34, "TEXCOORD_0" : 35}, "indices" : 32, "material" : 0, "mode" : 4}], "name" : "Cylinder.008"}, {"primitives" : [{"attributes" : {"POSITION" : 37, "NORMAL" : 38, "TEXCOORD_0" : 39}, "indices" : 36, "material" : 0, "mode" : 4}], "name" : "Cylinder.009"}, {"primitives" : [{"attributes" : {"POSITION" : 41, "NORMAL" : 42, "TEXCOORD_0" : 43}, "indices" : 40, "material" : 0, "mode" : 4}], "name" : "Cube.003"}], "nodes" : [{"matrix" : [73.63372802734375, 0, 0, 0, 0, -3.2186326030942898E-06, -73.63372802734368, 0, 0, 73.63372802734368, -3.2186326030942898E-06, 0, -1.128872784299565E-15, 4.93312931060791, 237.35906982421875, 1], "mesh" : 0, "name" : "Cube"}, {"matrix" : [2.3803346319710223E-06, -31.528488159179595, 0, 0, 2.3803346319710155E-06, 1.7971026493736068E-13, -31.528488159179595, 0, 17.19552803039541, 1.298226247929413E-06, 1.2982262479294166E-06, 0, 52.617210388183594, -60.53007888793945, -219.77696228027344, 1], "mesh" : 1, "name" : "Cylinder.003"}, {"matrix" : [4.723689079284668, 0, 0, 0, 0, -2.1658553620595105E-07, -4.9548993110656685, 0, 0, 4.9548993110656685, -2.1658553620595105E-07, 0, -6.86454770454435E-15, -30.91517448425293, 202.7418670654297, 1], "mesh" : 2, "name" : "Cube.001"}, {"matrix" : [2.3803346319710223E-06, -31.528488159179595, 0, 0, 2.3803346319710155E-06, 1.7971026493736068E-13, -31.528488159179595, 0, 17.19552803039541, 1.298226247929413E-06, 1.2982262479294166E-06, 0, 52.617210388183594, -60.53007888793945, 80.99786376953125, 1], "mesh" : 3, "name" : "Cylinder.002"}, {"matrix" : [50.489013671875, 0, 0, 0, 0, 3.811814482523204E-06, -50.48901367187485, 0, 0, 50.48901367187485, 3.811814482523204E-06, 0, -31.692222595214844, -5.56473970413208, 256.82635498046875, 1], "mesh" : 4, "name" : "Cube.002"}, {"matrix" : [78.70965576171875, 0, 0, 0, 0, 51.57642364501948, 2.254477080388739E-06, 0, 0, -3.7446124871390995E-06, 85.66674804687491, 0, 0, 15.952634811401367, 0, 1], "mesh" : 5, "name" : "Cylinder.004"}, {"matrix" : [2.3803346319710223E-06, -31.528488159179595, 0, 0, 2.3803346319710155E-06, 1.7971026493736068E-13, -31.528488159179595, 0, 17.19552803039541, 1.298226247929413E-06, 1.2982262479294166E-06, 0, 52.617210388183594, -60.53007888793945, 154.34239196777344, 1], "mesh" : 6, "name" : "Cylinder.001"}, {"matrix" : [-2.380334631971018E-06, -31.528488159179542, -1.8792441130096314E-06, 0, -1.3781539002160174E-06, 1.8792442170573595E-06, -31.5284881591796, 0, -17.19552803039544, 1.2982262031281597E-06, 7.516404320245736E-07, 0, -56.8857536315918, -60.53007888793945, -219.77696228027344, 1], "mesh" : 7, "name" : "Cylinder.005"}, {"matrix" : [-2.380334631971018E-06, -31.528488159179542, -1.8792441130096314E-06, 0, -1.3781539002160174E-06, 1.8792442170573595E-06, -31.5284881591796, 0, -17.19552803039544, 1.2982262031281597E-06, 7.516404320245736E-07, 0, -56.8857536315918, -60.53007888793945, 80.99786376953125, 1], "mesh" : 8, "name" : "Cylinder.006"}, {"matrix" : [-2.380334631971018E-06, -31.528488159179542, -1.8792441130096314E-06, 0, -1.3781539002160174E-06, 1.8792442170573595E-06, -31.5284881591796, 0, -17.19552803039544, 1.2982262031281597E-06, 7.516404320245736E-07, 0, -56.8857536315918, -60.53007888793945, 154.34239196777344, 1], "mesh" : 9, "name" : "Cylinder.007"}, {"matrix" : [39.82276916503906, 0, 0, 0, 0, -6.664276581061971E-07, -15.24608707427977, 0, 0, 23.215705871582006, -1.0147907735212494E-06, 0, -3.5231411457061768, -43.71357727050781, 182.97268676757812, 1], "mesh" : 10, "name" : "Cube.003"}], "samplers" : [{"magFilter" : 9729, "minFilter" : 9729, "wrapS" : 10497, "wrapT" : 10497}], "scene" : 0, "scenes" : [{"nodes" : [0, 1, 2, 3, 4, 5, 6, 7, 8, 9, 10]}], "textures" : [{"sampler" : 0, "source" : 0, "name" : "base_color_texture"}]}
